%TF.GenerationSoftware,KiCad,Pcbnew,(5.1.10)-1*%
%TF.CreationDate,2022-10-31T01:55:02+09:00*%
%TF.ProjectId,IM920sL_module,494d3932-3073-44c5-9f6d-6f64756c652e,rev?*%
%TF.SameCoordinates,Original*%
%TF.FileFunction,Copper,L2,Bot*%
%TF.FilePolarity,Positive*%
%FSLAX46Y46*%
G04 Gerber Fmt 4.6, Leading zero omitted, Abs format (unit mm)*
G04 Created by KiCad (PCBNEW (5.1.10)-1) date 2022-10-31 01:55:02*
%MOMM*%
%LPD*%
G01*
G04 APERTURE LIST*
%TA.AperFunction,ComponentPad*%
%ADD10O,3.048000X1.524000*%
%TD*%
%TA.AperFunction,ComponentPad*%
%ADD11O,1.524000X3.048000*%
%TD*%
%TA.AperFunction,SMDPad,CuDef*%
%ADD12R,1.400000X1.650000*%
%TD*%
%TA.AperFunction,ComponentPad*%
%ADD13C,1.508000*%
%TD*%
%TA.AperFunction,ViaPad*%
%ADD14C,0.756400*%
%TD*%
%TA.AperFunction,Conductor*%
%ADD15C,0.152400*%
%TD*%
%TA.AperFunction,Conductor*%
%ADD16C,0.076200*%
%TD*%
%TA.AperFunction,Conductor*%
%ADD17C,0.100000*%
%TD*%
G04 APERTURE END LIST*
D10*
%TO.P,JP1,8*%
%TO.N,/RESET*%
X129300612Y-114363600D03*
%TO.P,JP1,7*%
%TO.N,/VCC*%
X129300612Y-111823600D03*
%TO.P,JP1,6*%
%TO.N,/STATUS*%
X129300612Y-109283600D03*
%TO.P,JP1,5*%
%TO.N,/P9*%
X129300612Y-106743600D03*
%TO.P,JP1,4*%
%TO.N,/P7*%
X129300612Y-104203600D03*
%TO.P,JP1,3*%
%TO.N,/P5*%
X129300612Y-101663600D03*
%TO.P,JP1,2*%
%TO.N,/P3*%
X129300612Y-99123600D03*
%TO.P,JP1,1*%
%TO.N,/P1*%
X129300612Y-96583600D03*
%TD*%
%TO.P,JP2,8*%
%TO.N,GND*%
X167400612Y-114363600D03*
%TO.P,JP2,7*%
%TO.N,/REG*%
X167400612Y-111823600D03*
%TO.P,JP2,6*%
%TO.N,Net-(JP2-Pad6)*%
X167400612Y-109283600D03*
%TO.P,JP2,5*%
%TO.N,/P10*%
X167400612Y-106743600D03*
%TO.P,JP2,4*%
%TO.N,/P8*%
X167400612Y-104203600D03*
%TO.P,JP2,3*%
%TO.N,/P6*%
X167400612Y-101663600D03*
%TO.P,JP2,2*%
%TO.N,/P4*%
X167400612Y-99123600D03*
%TO.P,JP2,1*%
%TO.N,/P2*%
X167400612Y-96583600D03*
%TD*%
D11*
%TO.P,AD_MODE1,2*%
%TO.N,/P8*%
X160020612Y-93423600D03*
%TO.P,AD_MODE1,1*%
%TO.N,/VCC*%
X157480612Y-93423600D03*
%TD*%
D12*
%TO.P,R2,RIGHT*%
%TO.N,/VCC*%
X139230000Y-109560000D03*
%TO.P,R2,LEFT*%
%TO.N,/P9*%
X141830000Y-109560000D03*
%TD*%
%TO.P,R3,RIGHT*%
%TO.N,/VCC*%
X139230000Y-111960000D03*
%TO.P,R3,LEFT*%
%TO.N,/P10*%
X141830000Y-111960000D03*
%TD*%
D13*
%TO.P,SW1,T4*%
%TO.N,REG*%
X156730612Y-104693600D03*
%TO.P,SW1,T3*%
%TO.N,N/C*%
X156730612Y-98193600D03*
%TO.P,SW1,T2*%
%TO.N,GND*%
X161230612Y-104693600D03*
%TO.P,SW1,T1*%
%TO.N,N/C*%
X161230612Y-98193600D03*
%TD*%
%TO.P,SW2,RESET*%
%TO.N,/RESET*%
X156730612Y-114593600D03*
%TO.P,SW2,T3*%
%TO.N,N/C*%
X156730612Y-108093600D03*
%TO.P,SW2,T2*%
%TO.N,GND*%
X161230612Y-114593600D03*
%TO.P,SW2,T1*%
%TO.N,N/C*%
X161230612Y-108093600D03*
%TD*%
D14*
%TO.N,/P9*%
X134830612Y-115673600D03*
X140830612Y-116754200D03*
%TO.N,/P10*%
X141530612Y-115954200D03*
%TO.N,/P7*%
X135509049Y-116280400D03*
%TO.N,/P5*%
X136189487Y-116885200D03*
%TO.N,/P3*%
X136908468Y-117451457D03*
%TD*%
D15*
%TO.N,/REG*%
X161880612Y-106303600D02*
X158340612Y-106303600D01*
X158340612Y-106303600D02*
X156730612Y-104693600D01*
X167400612Y-111823600D02*
X161880612Y-106303600D01*
%TO.N,/P9*%
X140830612Y-116754200D02*
X141750012Y-116754200D01*
X141750012Y-116754200D02*
X142830612Y-115673600D01*
%TO.N,/P8*%
X160020612Y-93423600D02*
X162980612Y-96383600D01*
X162980612Y-96383600D02*
X162980612Y-101103600D01*
X162980612Y-101103600D02*
X166080612Y-104203600D01*
X166080612Y-104203600D02*
X167400612Y-104203600D01*
%TO.N,/P7*%
X131358012Y-106261000D02*
X129300612Y-104203600D01*
%TO.N,/P5*%
X131662812Y-104025800D02*
X129300612Y-101663600D01*
%TO.N,/P3*%
X136908468Y-117451457D02*
X136908468Y-115631194D01*
X131980612Y-101803600D02*
X129300612Y-99123600D01*
%TO.N,/P9*%
X134830612Y-114910612D02*
X134830612Y-115673600D01*
X131053212Y-111133212D02*
X134830612Y-114910612D01*
X131053212Y-108496200D02*
X131053212Y-111133212D01*
X129300612Y-106743600D02*
X131053212Y-108496200D01*
X142830612Y-110560612D02*
X141830000Y-109560000D01*
X142830612Y-115673600D02*
X142830612Y-110560612D01*
%TO.N,/P7*%
X131358012Y-106261000D02*
X131358012Y-110988012D01*
X135509049Y-115139049D02*
X135509049Y-116280400D01*
X131358012Y-110988012D02*
X135509049Y-115139049D01*
%TO.N,/P5*%
X131675802Y-104075802D02*
X131675803Y-110829595D01*
X131662812Y-104062812D02*
X131675802Y-104075802D01*
X131662812Y-104025800D02*
X131662812Y-104062812D01*
X136189487Y-115343279D02*
X136189487Y-116885200D01*
X131675803Y-110829595D02*
X136189487Y-115343279D01*
%TO.N,/P3*%
X131980612Y-110703338D02*
X136908468Y-115631194D01*
X131980612Y-101803600D02*
X131980612Y-110703338D01*
%TO.N,/P10*%
X141530612Y-115954200D02*
X141930000Y-115554812D01*
X141930000Y-112060000D02*
X141830000Y-111960000D01*
X141930000Y-115554812D02*
X141930000Y-112060000D01*
%TD*%
D16*
%TO.N,/VCC*%
X130749534Y-89162716D02*
X130766656Y-89165307D01*
X130768242Y-89165788D01*
X130777514Y-89166701D01*
X168350475Y-89166701D01*
X168800372Y-89315077D01*
X169216322Y-89549956D01*
X169578726Y-89861151D01*
X169873782Y-90236808D01*
X170090257Y-90662630D01*
X170219899Y-91122385D01*
X170257771Y-91598559D01*
X170202087Y-92075993D01*
X170199519Y-92087622D01*
X170198425Y-92091230D01*
X170197512Y-92100502D01*
X170197511Y-117906697D01*
X170198424Y-117915969D01*
X170198653Y-117916724D01*
X170257397Y-118391558D01*
X170222849Y-118867987D01*
X170096420Y-119328637D01*
X169882927Y-119755951D01*
X169590499Y-120133663D01*
X169230273Y-120447383D01*
X168815977Y-120685158D01*
X168360543Y-120838894D01*
X168353507Y-120840499D01*
X130777514Y-120840499D01*
X130775752Y-120840673D01*
X130083254Y-120879472D01*
X129401211Y-120783699D01*
X128750764Y-120557275D01*
X128156687Y-120208827D01*
X127641600Y-119751620D01*
X127225131Y-119203078D01*
X126923138Y-118584086D01*
X126746360Y-117915331D01*
X126743713Y-117898631D01*
X126743713Y-114363600D01*
X127581504Y-114363600D01*
X127599895Y-114550323D01*
X127654360Y-114729869D01*
X127742806Y-114895341D01*
X127861834Y-115040378D01*
X128006871Y-115159406D01*
X128172343Y-115247852D01*
X128351889Y-115302317D01*
X128491827Y-115316100D01*
X130109397Y-115316100D01*
X130249335Y-115302317D01*
X130428881Y-115247852D01*
X130594353Y-115159406D01*
X130739390Y-115040378D01*
X130858418Y-114895341D01*
X130946864Y-114729869D01*
X131001329Y-114550323D01*
X131019720Y-114363600D01*
X131001329Y-114176877D01*
X130946864Y-113997331D01*
X130858418Y-113831859D01*
X130739390Y-113686822D01*
X130594353Y-113567794D01*
X130428881Y-113479348D01*
X130249335Y-113424883D01*
X130109397Y-113411100D01*
X128491827Y-113411100D01*
X128351889Y-113424883D01*
X128172343Y-113479348D01*
X128006871Y-113567794D01*
X127861834Y-113686822D01*
X127742806Y-113831859D01*
X127654360Y-113997331D01*
X127599895Y-114176877D01*
X127581504Y-114363600D01*
X126743713Y-114363600D01*
X126743713Y-99123600D01*
X127581504Y-99123600D01*
X127599895Y-99310323D01*
X127654360Y-99489869D01*
X127742806Y-99655341D01*
X127861834Y-99800378D01*
X128006871Y-99919406D01*
X128172343Y-100007852D01*
X128351889Y-100062317D01*
X128491827Y-100076100D01*
X129875942Y-100076100D01*
X131713912Y-101914070D01*
X131713912Y-103699730D01*
X130515653Y-102501471D01*
X130594353Y-102459406D01*
X130739390Y-102340378D01*
X130858418Y-102195341D01*
X130946864Y-102029869D01*
X131001329Y-101850323D01*
X131019720Y-101663600D01*
X131001329Y-101476877D01*
X130946864Y-101297331D01*
X130858418Y-101131859D01*
X130739390Y-100986822D01*
X130594353Y-100867794D01*
X130428881Y-100779348D01*
X130249335Y-100724883D01*
X130109397Y-100711100D01*
X128491827Y-100711100D01*
X128351889Y-100724883D01*
X128172343Y-100779348D01*
X128006871Y-100867794D01*
X127861834Y-100986822D01*
X127742806Y-101131859D01*
X127654360Y-101297331D01*
X127599895Y-101476877D01*
X127581504Y-101663600D01*
X127599895Y-101850323D01*
X127654360Y-102029869D01*
X127742806Y-102195341D01*
X127861834Y-102340378D01*
X128006871Y-102459406D01*
X128172343Y-102547852D01*
X128351889Y-102602317D01*
X128491827Y-102616100D01*
X129875942Y-102616100D01*
X131409102Y-104149260D01*
X131409103Y-105934920D01*
X130515654Y-105041471D01*
X130594353Y-104999406D01*
X130739390Y-104880378D01*
X130858418Y-104735341D01*
X130946864Y-104569869D01*
X131001329Y-104390323D01*
X131019720Y-104203600D01*
X131001329Y-104016877D01*
X130946864Y-103837331D01*
X130858418Y-103671859D01*
X130739390Y-103526822D01*
X130594353Y-103407794D01*
X130428881Y-103319348D01*
X130249335Y-103264883D01*
X130109397Y-103251100D01*
X128491827Y-103251100D01*
X128351889Y-103264883D01*
X128172343Y-103319348D01*
X128006871Y-103407794D01*
X127861834Y-103526822D01*
X127742806Y-103671859D01*
X127654360Y-103837331D01*
X127599895Y-104016877D01*
X127581504Y-104203600D01*
X127599895Y-104390323D01*
X127654360Y-104569869D01*
X127742806Y-104735341D01*
X127861834Y-104880378D01*
X128006871Y-104999406D01*
X128172343Y-105087852D01*
X128351889Y-105142317D01*
X128491827Y-105156100D01*
X129875942Y-105156100D01*
X131091312Y-106371471D01*
X131091312Y-108157129D01*
X130515654Y-107581471D01*
X130594353Y-107539406D01*
X130739390Y-107420378D01*
X130858418Y-107275341D01*
X130946864Y-107109869D01*
X131001329Y-106930323D01*
X131019720Y-106743600D01*
X131001329Y-106556877D01*
X130946864Y-106377331D01*
X130858418Y-106211859D01*
X130739390Y-106066822D01*
X130594353Y-105947794D01*
X130428881Y-105859348D01*
X130249335Y-105804883D01*
X130109397Y-105791100D01*
X128491827Y-105791100D01*
X128351889Y-105804883D01*
X128172343Y-105859348D01*
X128006871Y-105947794D01*
X127861834Y-106066822D01*
X127742806Y-106211859D01*
X127654360Y-106377331D01*
X127599895Y-106556877D01*
X127581504Y-106743600D01*
X127599895Y-106930323D01*
X127654360Y-107109869D01*
X127742806Y-107275341D01*
X127861834Y-107420378D01*
X128006871Y-107539406D01*
X128172343Y-107627852D01*
X128351889Y-107682317D01*
X128491827Y-107696100D01*
X129875942Y-107696100D01*
X130786512Y-108606671D01*
X130786512Y-108664241D01*
X130739390Y-108606822D01*
X130594353Y-108487794D01*
X130428881Y-108399348D01*
X130249335Y-108344883D01*
X130109397Y-108331100D01*
X128491827Y-108331100D01*
X128351889Y-108344883D01*
X128172343Y-108399348D01*
X128006871Y-108487794D01*
X127861834Y-108606822D01*
X127742806Y-108751859D01*
X127654360Y-108917331D01*
X127599895Y-109096877D01*
X127581504Y-109283600D01*
X127599895Y-109470323D01*
X127654360Y-109649869D01*
X127742806Y-109815341D01*
X127861834Y-109960378D01*
X128006871Y-110079406D01*
X128172343Y-110167852D01*
X128351889Y-110222317D01*
X128491827Y-110236100D01*
X130109397Y-110236100D01*
X130249335Y-110222317D01*
X130428881Y-110167852D01*
X130594353Y-110079406D01*
X130739390Y-109960378D01*
X130786513Y-109902959D01*
X130786513Y-111120106D01*
X130785222Y-111133212D01*
X130789586Y-111177510D01*
X130790372Y-111185494D01*
X130805623Y-111235767D01*
X130830387Y-111282099D01*
X130863715Y-111322710D01*
X130873891Y-111331061D01*
X134563912Y-115021082D01*
X134563912Y-115168513D01*
X134561231Y-115169624D01*
X134468087Y-115231862D01*
X134388874Y-115311075D01*
X134326636Y-115404219D01*
X134283767Y-115507716D01*
X134261912Y-115617588D01*
X134261912Y-115729612D01*
X134283767Y-115839484D01*
X134326636Y-115942981D01*
X134388874Y-116036125D01*
X134468087Y-116115338D01*
X134561231Y-116177576D01*
X134664728Y-116220445D01*
X134774600Y-116242300D01*
X134886624Y-116242300D01*
X134940349Y-116231613D01*
X134940349Y-116336412D01*
X134962204Y-116446284D01*
X135005073Y-116549781D01*
X135067311Y-116642925D01*
X135146524Y-116722138D01*
X135239668Y-116784376D01*
X135343165Y-116827245D01*
X135453037Y-116849100D01*
X135565061Y-116849100D01*
X135620787Y-116838015D01*
X135620787Y-116941212D01*
X135642642Y-117051084D01*
X135685511Y-117154581D01*
X135747749Y-117247725D01*
X135826962Y-117326938D01*
X135920106Y-117389176D01*
X136023603Y-117432045D01*
X136133475Y-117453900D01*
X136245499Y-117453900D01*
X136339768Y-117435149D01*
X136339768Y-117507469D01*
X136361623Y-117617341D01*
X136404492Y-117720838D01*
X136466730Y-117813982D01*
X136545943Y-117893195D01*
X136639087Y-117955433D01*
X136742584Y-117998302D01*
X136852456Y-118020157D01*
X136964480Y-118020157D01*
X137074352Y-117998302D01*
X137177849Y-117955433D01*
X137270993Y-117893195D01*
X137350206Y-117813982D01*
X137412444Y-117720838D01*
X137455313Y-117617341D01*
X137477168Y-117507469D01*
X137477168Y-117395445D01*
X137455313Y-117285573D01*
X137412444Y-117182076D01*
X137350206Y-117088932D01*
X137270993Y-117009719D01*
X137177849Y-116947481D01*
X137175168Y-116946371D01*
X137175168Y-116698188D01*
X140261912Y-116698188D01*
X140261912Y-116810212D01*
X140283767Y-116920084D01*
X140326636Y-117023581D01*
X140388874Y-117116725D01*
X140468087Y-117195938D01*
X140561231Y-117258176D01*
X140664728Y-117301045D01*
X140774600Y-117322900D01*
X140886624Y-117322900D01*
X140996496Y-117301045D01*
X141099993Y-117258176D01*
X141193137Y-117195938D01*
X141272350Y-117116725D01*
X141334588Y-117023581D01*
X141335698Y-117020900D01*
X141736916Y-117020900D01*
X141750012Y-117022190D01*
X141763108Y-117020900D01*
X141763110Y-117020900D01*
X141802294Y-117017041D01*
X141852567Y-117001790D01*
X141898899Y-116977026D01*
X141939510Y-116943698D01*
X141947866Y-116933516D01*
X143009928Y-115871454D01*
X143020110Y-115863098D01*
X143053438Y-115822487D01*
X143078202Y-115776155D01*
X143093453Y-115725882D01*
X143097312Y-115686698D01*
X143097312Y-115686697D01*
X143098602Y-115673601D01*
X143097312Y-115660505D01*
X143097312Y-114500575D01*
X155786112Y-114500575D01*
X155786112Y-114686625D01*
X155822409Y-114869100D01*
X155893607Y-115040989D01*
X155996971Y-115195684D01*
X156128528Y-115327241D01*
X156283223Y-115430605D01*
X156455112Y-115501803D01*
X156637587Y-115538100D01*
X156823637Y-115538100D01*
X157006112Y-115501803D01*
X157178001Y-115430605D01*
X157332696Y-115327241D01*
X157464253Y-115195684D01*
X157567617Y-115040989D01*
X157638815Y-114869100D01*
X157675112Y-114686625D01*
X157675112Y-114500575D01*
X160286112Y-114500575D01*
X160286112Y-114686625D01*
X160322409Y-114869100D01*
X160393607Y-115040989D01*
X160496971Y-115195684D01*
X160628528Y-115327241D01*
X160783223Y-115430605D01*
X160955112Y-115501803D01*
X161137587Y-115538100D01*
X161323637Y-115538100D01*
X161506112Y-115501803D01*
X161678001Y-115430605D01*
X161832696Y-115327241D01*
X161964253Y-115195684D01*
X162067617Y-115040989D01*
X162138815Y-114869100D01*
X162175112Y-114686625D01*
X162175112Y-114500575D01*
X162147866Y-114363600D01*
X165681504Y-114363600D01*
X165699895Y-114550323D01*
X165754360Y-114729869D01*
X165842806Y-114895341D01*
X165961834Y-115040378D01*
X166106871Y-115159406D01*
X166272343Y-115247852D01*
X166451889Y-115302317D01*
X166591827Y-115316100D01*
X168209397Y-115316100D01*
X168349335Y-115302317D01*
X168528881Y-115247852D01*
X168694353Y-115159406D01*
X168839390Y-115040378D01*
X168958418Y-114895341D01*
X169046864Y-114729869D01*
X169101329Y-114550323D01*
X169119720Y-114363600D01*
X169101329Y-114176877D01*
X169046864Y-113997331D01*
X168958418Y-113831859D01*
X168839390Y-113686822D01*
X168694353Y-113567794D01*
X168528881Y-113479348D01*
X168349335Y-113424883D01*
X168209397Y-113411100D01*
X166591827Y-113411100D01*
X166451889Y-113424883D01*
X166272343Y-113479348D01*
X166106871Y-113567794D01*
X165961834Y-113686822D01*
X165842806Y-113831859D01*
X165754360Y-113997331D01*
X165699895Y-114176877D01*
X165681504Y-114363600D01*
X162147866Y-114363600D01*
X162138815Y-114318100D01*
X162067617Y-114146211D01*
X161964253Y-113991516D01*
X161832696Y-113859959D01*
X161678001Y-113756595D01*
X161506112Y-113685397D01*
X161323637Y-113649100D01*
X161137587Y-113649100D01*
X160955112Y-113685397D01*
X160783223Y-113756595D01*
X160628528Y-113859959D01*
X160496971Y-113991516D01*
X160393607Y-114146211D01*
X160322409Y-114318100D01*
X160286112Y-114500575D01*
X157675112Y-114500575D01*
X157638815Y-114318100D01*
X157567617Y-114146211D01*
X157464253Y-113991516D01*
X157332696Y-113859959D01*
X157178001Y-113756595D01*
X157006112Y-113685397D01*
X156823637Y-113649100D01*
X156637587Y-113649100D01*
X156455112Y-113685397D01*
X156283223Y-113756595D01*
X156128528Y-113859959D01*
X155996971Y-113991516D01*
X155893607Y-114146211D01*
X155822409Y-114318100D01*
X155786112Y-114500575D01*
X143097312Y-114500575D01*
X143097312Y-110573707D01*
X143098602Y-110560611D01*
X143094637Y-110520355D01*
X143093453Y-110508330D01*
X143078202Y-110458057D01*
X143053438Y-110411725D01*
X143020110Y-110371114D01*
X143009933Y-110362762D01*
X142721421Y-110074250D01*
X142721421Y-108735000D01*
X142717743Y-108697656D01*
X142706850Y-108661746D01*
X142689161Y-108628652D01*
X142665355Y-108599645D01*
X142636348Y-108575839D01*
X142603254Y-108558150D01*
X142567344Y-108547257D01*
X142530000Y-108543579D01*
X141130000Y-108543579D01*
X141092656Y-108547257D01*
X141056746Y-108558150D01*
X141023652Y-108575839D01*
X140994645Y-108599645D01*
X140970839Y-108628652D01*
X140953150Y-108661746D01*
X140942257Y-108697656D01*
X140938579Y-108735000D01*
X140938579Y-110385000D01*
X140942257Y-110422344D01*
X140953150Y-110458254D01*
X140970839Y-110491348D01*
X140994645Y-110520355D01*
X141023652Y-110544161D01*
X141056746Y-110561850D01*
X141092656Y-110572743D01*
X141130000Y-110576421D01*
X142469250Y-110576421D01*
X142563913Y-110671084D01*
X142563913Y-110946919D01*
X142530000Y-110943579D01*
X141130000Y-110943579D01*
X141092656Y-110947257D01*
X141056746Y-110958150D01*
X141023652Y-110975839D01*
X140994645Y-110999645D01*
X140970839Y-111028652D01*
X140953150Y-111061746D01*
X140942257Y-111097656D01*
X140938579Y-111135000D01*
X140938579Y-112785000D01*
X140942257Y-112822344D01*
X140953150Y-112858254D01*
X140970839Y-112891348D01*
X140994645Y-112920355D01*
X141023652Y-112944161D01*
X141056746Y-112961850D01*
X141092656Y-112972743D01*
X141130000Y-112976421D01*
X141663301Y-112976421D01*
X141663300Y-115400752D01*
X141586624Y-115385500D01*
X141474600Y-115385500D01*
X141364728Y-115407355D01*
X141261231Y-115450224D01*
X141168087Y-115512462D01*
X141088874Y-115591675D01*
X141026636Y-115684819D01*
X140983767Y-115788316D01*
X140961912Y-115898188D01*
X140961912Y-116010212D01*
X140983767Y-116120084D01*
X141024765Y-116219064D01*
X140996496Y-116207355D01*
X140886624Y-116185500D01*
X140774600Y-116185500D01*
X140664728Y-116207355D01*
X140561231Y-116250224D01*
X140468087Y-116312462D01*
X140388874Y-116391675D01*
X140326636Y-116484819D01*
X140283767Y-116588316D01*
X140261912Y-116698188D01*
X137175168Y-116698188D01*
X137175168Y-115644290D01*
X137176458Y-115631194D01*
X137175118Y-115617588D01*
X137171309Y-115578912D01*
X137156058Y-115528639D01*
X137156058Y-115528638D01*
X137141714Y-115501803D01*
X137131294Y-115482307D01*
X137097966Y-115441696D01*
X137087790Y-115433345D01*
X132247312Y-110592868D01*
X132247312Y-108000575D01*
X155786112Y-108000575D01*
X155786112Y-108186625D01*
X155822409Y-108369100D01*
X155893607Y-108540989D01*
X155996971Y-108695684D01*
X156128528Y-108827241D01*
X156283223Y-108930605D01*
X156455112Y-109001803D01*
X156637587Y-109038100D01*
X156823637Y-109038100D01*
X157006112Y-109001803D01*
X157178001Y-108930605D01*
X157332696Y-108827241D01*
X157464253Y-108695684D01*
X157567617Y-108540989D01*
X157638815Y-108369100D01*
X157675112Y-108186625D01*
X157675112Y-108000575D01*
X160286112Y-108000575D01*
X160286112Y-108186625D01*
X160322409Y-108369100D01*
X160393607Y-108540989D01*
X160496971Y-108695684D01*
X160628528Y-108827241D01*
X160783223Y-108930605D01*
X160955112Y-109001803D01*
X161137587Y-109038100D01*
X161323637Y-109038100D01*
X161506112Y-109001803D01*
X161678001Y-108930605D01*
X161832696Y-108827241D01*
X161964253Y-108695684D01*
X162067617Y-108540989D01*
X162138815Y-108369100D01*
X162175112Y-108186625D01*
X162175112Y-108000575D01*
X162138815Y-107818100D01*
X162067617Y-107646211D01*
X161964253Y-107491516D01*
X161832696Y-107359959D01*
X161678001Y-107256595D01*
X161506112Y-107185397D01*
X161323637Y-107149100D01*
X161137587Y-107149100D01*
X160955112Y-107185397D01*
X160783223Y-107256595D01*
X160628528Y-107359959D01*
X160496971Y-107491516D01*
X160393607Y-107646211D01*
X160322409Y-107818100D01*
X160286112Y-108000575D01*
X157675112Y-108000575D01*
X157638815Y-107818100D01*
X157567617Y-107646211D01*
X157464253Y-107491516D01*
X157332696Y-107359959D01*
X157178001Y-107256595D01*
X157006112Y-107185397D01*
X156823637Y-107149100D01*
X156637587Y-107149100D01*
X156455112Y-107185397D01*
X156283223Y-107256595D01*
X156128528Y-107359959D01*
X155996971Y-107491516D01*
X155893607Y-107646211D01*
X155822409Y-107818100D01*
X155786112Y-108000575D01*
X132247312Y-108000575D01*
X132247312Y-104600575D01*
X155786112Y-104600575D01*
X155786112Y-104786625D01*
X155822409Y-104969100D01*
X155893607Y-105140989D01*
X155996971Y-105295684D01*
X156128528Y-105427241D01*
X156283223Y-105530605D01*
X156455112Y-105601803D01*
X156637587Y-105638100D01*
X156823637Y-105638100D01*
X157006112Y-105601803D01*
X157178001Y-105530605D01*
X157185462Y-105525620D01*
X158142762Y-106482921D01*
X158151114Y-106493098D01*
X158191725Y-106526426D01*
X158213292Y-106537953D01*
X158238056Y-106551190D01*
X158247659Y-106554103D01*
X158288330Y-106566441D01*
X158327514Y-106570300D01*
X158327516Y-106570300D01*
X158340612Y-106571590D01*
X158353708Y-106570300D01*
X161770142Y-106570300D01*
X166185570Y-110985729D01*
X166106871Y-111027794D01*
X165961834Y-111146822D01*
X165842806Y-111291859D01*
X165754360Y-111457331D01*
X165699895Y-111636877D01*
X165681504Y-111823600D01*
X165699895Y-112010323D01*
X165754360Y-112189869D01*
X165842806Y-112355341D01*
X165961834Y-112500378D01*
X166106871Y-112619406D01*
X166272343Y-112707852D01*
X166451889Y-112762317D01*
X166591827Y-112776100D01*
X168209397Y-112776100D01*
X168349335Y-112762317D01*
X168528881Y-112707852D01*
X168694353Y-112619406D01*
X168839390Y-112500378D01*
X168958418Y-112355341D01*
X169046864Y-112189869D01*
X169101329Y-112010323D01*
X169119720Y-111823600D01*
X169101329Y-111636877D01*
X169046864Y-111457331D01*
X168958418Y-111291859D01*
X168839390Y-111146822D01*
X168694353Y-111027794D01*
X168528881Y-110939348D01*
X168349335Y-110884883D01*
X168209397Y-110871100D01*
X166825283Y-110871100D01*
X165237783Y-109283600D01*
X165681504Y-109283600D01*
X165699895Y-109470323D01*
X165754360Y-109649869D01*
X165842806Y-109815341D01*
X165961834Y-109960378D01*
X166106871Y-110079406D01*
X166272343Y-110167852D01*
X166451889Y-110222317D01*
X166591827Y-110236100D01*
X168209397Y-110236100D01*
X168349335Y-110222317D01*
X168528881Y-110167852D01*
X168694353Y-110079406D01*
X168839390Y-109960378D01*
X168958418Y-109815341D01*
X169046864Y-109649869D01*
X169101329Y-109470323D01*
X169119720Y-109283600D01*
X169101329Y-109096877D01*
X169046864Y-108917331D01*
X168958418Y-108751859D01*
X168839390Y-108606822D01*
X168694353Y-108487794D01*
X168528881Y-108399348D01*
X168349335Y-108344883D01*
X168209397Y-108331100D01*
X166591827Y-108331100D01*
X166451889Y-108344883D01*
X166272343Y-108399348D01*
X166106871Y-108487794D01*
X165961834Y-108606822D01*
X165842806Y-108751859D01*
X165754360Y-108917331D01*
X165699895Y-109096877D01*
X165681504Y-109283600D01*
X165237783Y-109283600D01*
X162697783Y-106743600D01*
X165681504Y-106743600D01*
X165699895Y-106930323D01*
X165754360Y-107109869D01*
X165842806Y-107275341D01*
X165961834Y-107420378D01*
X166106871Y-107539406D01*
X166272343Y-107627852D01*
X166451889Y-107682317D01*
X166591827Y-107696100D01*
X168209397Y-107696100D01*
X168349335Y-107682317D01*
X168528881Y-107627852D01*
X168694353Y-107539406D01*
X168839390Y-107420378D01*
X168958418Y-107275341D01*
X169046864Y-107109869D01*
X169101329Y-106930323D01*
X169119720Y-106743600D01*
X169101329Y-106556877D01*
X169046864Y-106377331D01*
X168958418Y-106211859D01*
X168839390Y-106066822D01*
X168694353Y-105947794D01*
X168528881Y-105859348D01*
X168349335Y-105804883D01*
X168209397Y-105791100D01*
X166591827Y-105791100D01*
X166451889Y-105804883D01*
X166272343Y-105859348D01*
X166106871Y-105947794D01*
X165961834Y-106066822D01*
X165842806Y-106211859D01*
X165754360Y-106377331D01*
X165699895Y-106556877D01*
X165681504Y-106743600D01*
X162697783Y-106743600D01*
X162078466Y-106124284D01*
X162070110Y-106114102D01*
X162029499Y-106080774D01*
X161983167Y-106056010D01*
X161932894Y-106040759D01*
X161893710Y-106036900D01*
X161893708Y-106036900D01*
X161880612Y-106035610D01*
X161867516Y-106036900D01*
X158451083Y-106036900D01*
X157562632Y-105148450D01*
X157567617Y-105140989D01*
X157638815Y-104969100D01*
X157675112Y-104786625D01*
X157675112Y-104600575D01*
X160286112Y-104600575D01*
X160286112Y-104786625D01*
X160322409Y-104969100D01*
X160393607Y-105140989D01*
X160496971Y-105295684D01*
X160628528Y-105427241D01*
X160783223Y-105530605D01*
X160955112Y-105601803D01*
X161137587Y-105638100D01*
X161323637Y-105638100D01*
X161506112Y-105601803D01*
X161678001Y-105530605D01*
X161832696Y-105427241D01*
X161964253Y-105295684D01*
X162067617Y-105140989D01*
X162138815Y-104969100D01*
X162175112Y-104786625D01*
X162175112Y-104600575D01*
X162138815Y-104418100D01*
X162067617Y-104246211D01*
X161964253Y-104091516D01*
X161832696Y-103959959D01*
X161678001Y-103856595D01*
X161506112Y-103785397D01*
X161323637Y-103749100D01*
X161137587Y-103749100D01*
X160955112Y-103785397D01*
X160783223Y-103856595D01*
X160628528Y-103959959D01*
X160496971Y-104091516D01*
X160393607Y-104246211D01*
X160322409Y-104418100D01*
X160286112Y-104600575D01*
X157675112Y-104600575D01*
X157638815Y-104418100D01*
X157567617Y-104246211D01*
X157464253Y-104091516D01*
X157332696Y-103959959D01*
X157178001Y-103856595D01*
X157006112Y-103785397D01*
X156823637Y-103749100D01*
X156637587Y-103749100D01*
X156455112Y-103785397D01*
X156283223Y-103856595D01*
X156128528Y-103959959D01*
X155996971Y-104091516D01*
X155893607Y-104246211D01*
X155822409Y-104418100D01*
X155786112Y-104600575D01*
X132247312Y-104600575D01*
X132247312Y-101816695D01*
X132248602Y-101803599D01*
X132244914Y-101766155D01*
X132243453Y-101751318D01*
X132228202Y-101701045D01*
X132203438Y-101654713D01*
X132170110Y-101614102D01*
X132159928Y-101605746D01*
X130515653Y-99961471D01*
X130594353Y-99919406D01*
X130739390Y-99800378D01*
X130858418Y-99655341D01*
X130946864Y-99489869D01*
X131001329Y-99310323D01*
X131019720Y-99123600D01*
X131001329Y-98936877D01*
X130946864Y-98757331D01*
X130858418Y-98591859D01*
X130739390Y-98446822D01*
X130594353Y-98327794D01*
X130428881Y-98239348D01*
X130249335Y-98184883D01*
X130109397Y-98171100D01*
X128491827Y-98171100D01*
X128351889Y-98184883D01*
X128172343Y-98239348D01*
X128006871Y-98327794D01*
X127861834Y-98446822D01*
X127742806Y-98591859D01*
X127654360Y-98757331D01*
X127599895Y-98936877D01*
X127581504Y-99123600D01*
X126743713Y-99123600D01*
X126743713Y-98100575D01*
X155786112Y-98100575D01*
X155786112Y-98286625D01*
X155822409Y-98469100D01*
X155893607Y-98640989D01*
X155996971Y-98795684D01*
X156128528Y-98927241D01*
X156283223Y-99030605D01*
X156455112Y-99101803D01*
X156637587Y-99138100D01*
X156823637Y-99138100D01*
X157006112Y-99101803D01*
X157178001Y-99030605D01*
X157332696Y-98927241D01*
X157464253Y-98795684D01*
X157567617Y-98640989D01*
X157638815Y-98469100D01*
X157675112Y-98286625D01*
X157675112Y-98100575D01*
X160286112Y-98100575D01*
X160286112Y-98286625D01*
X160322409Y-98469100D01*
X160393607Y-98640989D01*
X160496971Y-98795684D01*
X160628528Y-98927241D01*
X160783223Y-99030605D01*
X160955112Y-99101803D01*
X161137587Y-99138100D01*
X161323637Y-99138100D01*
X161506112Y-99101803D01*
X161678001Y-99030605D01*
X161832696Y-98927241D01*
X161964253Y-98795684D01*
X162067617Y-98640989D01*
X162138815Y-98469100D01*
X162175112Y-98286625D01*
X162175112Y-98100575D01*
X162138815Y-97918100D01*
X162067617Y-97746211D01*
X161964253Y-97591516D01*
X161832696Y-97459959D01*
X161678001Y-97356595D01*
X161506112Y-97285397D01*
X161323637Y-97249100D01*
X161137587Y-97249100D01*
X160955112Y-97285397D01*
X160783223Y-97356595D01*
X160628528Y-97459959D01*
X160496971Y-97591516D01*
X160393607Y-97746211D01*
X160322409Y-97918100D01*
X160286112Y-98100575D01*
X157675112Y-98100575D01*
X157638815Y-97918100D01*
X157567617Y-97746211D01*
X157464253Y-97591516D01*
X157332696Y-97459959D01*
X157178001Y-97356595D01*
X157006112Y-97285397D01*
X156823637Y-97249100D01*
X156637587Y-97249100D01*
X156455112Y-97285397D01*
X156283223Y-97356595D01*
X156128528Y-97459959D01*
X155996971Y-97591516D01*
X155893607Y-97746211D01*
X155822409Y-97918100D01*
X155786112Y-98100575D01*
X126743713Y-98100575D01*
X126743713Y-96583600D01*
X127581504Y-96583600D01*
X127599895Y-96770323D01*
X127654360Y-96949869D01*
X127742806Y-97115341D01*
X127861834Y-97260378D01*
X128006871Y-97379406D01*
X128172343Y-97467852D01*
X128351889Y-97522317D01*
X128491827Y-97536100D01*
X130109397Y-97536100D01*
X130249335Y-97522317D01*
X130428881Y-97467852D01*
X130594353Y-97379406D01*
X130739390Y-97260378D01*
X130858418Y-97115341D01*
X130946864Y-96949869D01*
X131001329Y-96770323D01*
X131019720Y-96583600D01*
X131001329Y-96396877D01*
X130946864Y-96217331D01*
X130858418Y-96051859D01*
X130739390Y-95906822D01*
X130594353Y-95787794D01*
X130428881Y-95699348D01*
X130249335Y-95644883D01*
X130109397Y-95631100D01*
X128491827Y-95631100D01*
X128351889Y-95644883D01*
X128172343Y-95699348D01*
X128006871Y-95787794D01*
X127861834Y-95906822D01*
X127742806Y-96051859D01*
X127654360Y-96217331D01*
X127599895Y-96396877D01*
X127581504Y-96583600D01*
X126743713Y-96583600D01*
X126743713Y-92614816D01*
X159068112Y-92614816D01*
X159068113Y-94232385D01*
X159081896Y-94372323D01*
X159136361Y-94551869D01*
X159224807Y-94717341D01*
X159343835Y-94862378D01*
X159488872Y-94981406D01*
X159654344Y-95069852D01*
X159833890Y-95124317D01*
X160020612Y-95142708D01*
X160207335Y-95124317D01*
X160386881Y-95069852D01*
X160552353Y-94981406D01*
X160697390Y-94862378D01*
X160816418Y-94717341D01*
X160858483Y-94638641D01*
X162713912Y-96494070D01*
X162713913Y-101090494D01*
X162712622Y-101103600D01*
X162715406Y-101131859D01*
X162717772Y-101155882D01*
X162733023Y-101206155D01*
X162757787Y-101252487D01*
X162791115Y-101293098D01*
X162801291Y-101301449D01*
X165683471Y-104183630D01*
X165681504Y-104203600D01*
X165699895Y-104390323D01*
X165754360Y-104569869D01*
X165842806Y-104735341D01*
X165961834Y-104880378D01*
X166106871Y-104999406D01*
X166272343Y-105087852D01*
X166451889Y-105142317D01*
X166591827Y-105156100D01*
X168209397Y-105156100D01*
X168349335Y-105142317D01*
X168528881Y-105087852D01*
X168694353Y-104999406D01*
X168839390Y-104880378D01*
X168958418Y-104735341D01*
X169046864Y-104569869D01*
X169101329Y-104390323D01*
X169119720Y-104203600D01*
X169101329Y-104016877D01*
X169046864Y-103837331D01*
X168958418Y-103671859D01*
X168839390Y-103526822D01*
X168694353Y-103407794D01*
X168528881Y-103319348D01*
X168349335Y-103264883D01*
X168209397Y-103251100D01*
X166591827Y-103251100D01*
X166451889Y-103264883D01*
X166272343Y-103319348D01*
X166106871Y-103407794D01*
X165961834Y-103526822D01*
X165880325Y-103626142D01*
X163917783Y-101663600D01*
X165681504Y-101663600D01*
X165699895Y-101850323D01*
X165754360Y-102029869D01*
X165842806Y-102195341D01*
X165961834Y-102340378D01*
X166106871Y-102459406D01*
X166272343Y-102547852D01*
X166451889Y-102602317D01*
X166591827Y-102616100D01*
X168209397Y-102616100D01*
X168349335Y-102602317D01*
X168528881Y-102547852D01*
X168694353Y-102459406D01*
X168839390Y-102340378D01*
X168958418Y-102195341D01*
X169046864Y-102029869D01*
X169101329Y-101850323D01*
X169119720Y-101663600D01*
X169101329Y-101476877D01*
X169046864Y-101297331D01*
X168958418Y-101131859D01*
X168839390Y-100986822D01*
X168694353Y-100867794D01*
X168528881Y-100779348D01*
X168349335Y-100724883D01*
X168209397Y-100711100D01*
X166591827Y-100711100D01*
X166451889Y-100724883D01*
X166272343Y-100779348D01*
X166106871Y-100867794D01*
X165961834Y-100986822D01*
X165842806Y-101131859D01*
X165754360Y-101297331D01*
X165699895Y-101476877D01*
X165681504Y-101663600D01*
X163917783Y-101663600D01*
X163247312Y-100993130D01*
X163247312Y-99123600D01*
X165681504Y-99123600D01*
X165699895Y-99310323D01*
X165754360Y-99489869D01*
X165842806Y-99655341D01*
X165961834Y-99800378D01*
X166106871Y-99919406D01*
X166272343Y-100007852D01*
X166451889Y-100062317D01*
X166591827Y-100076100D01*
X168209397Y-100076100D01*
X168349335Y-100062317D01*
X168528881Y-100007852D01*
X168694353Y-99919406D01*
X168839390Y-99800378D01*
X168958418Y-99655341D01*
X169046864Y-99489869D01*
X169101329Y-99310323D01*
X169119720Y-99123600D01*
X169101329Y-98936877D01*
X169046864Y-98757331D01*
X168958418Y-98591859D01*
X168839390Y-98446822D01*
X168694353Y-98327794D01*
X168528881Y-98239348D01*
X168349335Y-98184883D01*
X168209397Y-98171100D01*
X166591827Y-98171100D01*
X166451889Y-98184883D01*
X166272343Y-98239348D01*
X166106871Y-98327794D01*
X165961834Y-98446822D01*
X165842806Y-98591859D01*
X165754360Y-98757331D01*
X165699895Y-98936877D01*
X165681504Y-99123600D01*
X163247312Y-99123600D01*
X163247312Y-96583600D01*
X165681504Y-96583600D01*
X165699895Y-96770323D01*
X165754360Y-96949869D01*
X165842806Y-97115341D01*
X165961834Y-97260378D01*
X166106871Y-97379406D01*
X166272343Y-97467852D01*
X166451889Y-97522317D01*
X166591827Y-97536100D01*
X168209397Y-97536100D01*
X168349335Y-97522317D01*
X168528881Y-97467852D01*
X168694353Y-97379406D01*
X168839390Y-97260378D01*
X168958418Y-97115341D01*
X169046864Y-96949869D01*
X169101329Y-96770323D01*
X169119720Y-96583600D01*
X169101329Y-96396877D01*
X169046864Y-96217331D01*
X168958418Y-96051859D01*
X168839390Y-95906822D01*
X168694353Y-95787794D01*
X168528881Y-95699348D01*
X168349335Y-95644883D01*
X168209397Y-95631100D01*
X166591827Y-95631100D01*
X166451889Y-95644883D01*
X166272343Y-95699348D01*
X166106871Y-95787794D01*
X165961834Y-95906822D01*
X165842806Y-96051859D01*
X165754360Y-96217331D01*
X165699895Y-96396877D01*
X165681504Y-96583600D01*
X163247312Y-96583600D01*
X163247312Y-96396695D01*
X163248602Y-96383599D01*
X163247312Y-96370502D01*
X163243453Y-96331318D01*
X163228202Y-96281045D01*
X163203438Y-96234713D01*
X163170110Y-96194102D01*
X163159928Y-96185746D01*
X160973112Y-93998930D01*
X160973112Y-92614815D01*
X160959329Y-92474877D01*
X160904864Y-92295331D01*
X160816418Y-92129859D01*
X160697390Y-91984822D01*
X160552353Y-91865794D01*
X160386880Y-91777348D01*
X160207334Y-91722883D01*
X160020612Y-91704492D01*
X159833889Y-91722883D01*
X159654343Y-91777348D01*
X159488871Y-91865794D01*
X159343834Y-91984822D01*
X159224806Y-92129859D01*
X159136360Y-92295332D01*
X159081895Y-92474878D01*
X159068112Y-92614816D01*
X126743713Y-92614816D01*
X126743713Y-92111577D01*
X126914628Y-91446233D01*
X127212292Y-90825150D01*
X127624922Y-90273712D01*
X128136803Y-89812923D01*
X128728439Y-89460333D01*
X129377286Y-89229374D01*
X130058643Y-89128843D01*
X130749534Y-89162716D01*
%TA.AperFunction,Conductor*%
D17*
G36*
X130749534Y-89162716D02*
G01*
X130766656Y-89165307D01*
X130768242Y-89165788D01*
X130777514Y-89166701D01*
X168350475Y-89166701D01*
X168800372Y-89315077D01*
X169216322Y-89549956D01*
X169578726Y-89861151D01*
X169873782Y-90236808D01*
X170090257Y-90662630D01*
X170219899Y-91122385D01*
X170257771Y-91598559D01*
X170202087Y-92075993D01*
X170199519Y-92087622D01*
X170198425Y-92091230D01*
X170197512Y-92100502D01*
X170197511Y-117906697D01*
X170198424Y-117915969D01*
X170198653Y-117916724D01*
X170257397Y-118391558D01*
X170222849Y-118867987D01*
X170096420Y-119328637D01*
X169882927Y-119755951D01*
X169590499Y-120133663D01*
X169230273Y-120447383D01*
X168815977Y-120685158D01*
X168360543Y-120838894D01*
X168353507Y-120840499D01*
X130777514Y-120840499D01*
X130775752Y-120840673D01*
X130083254Y-120879472D01*
X129401211Y-120783699D01*
X128750764Y-120557275D01*
X128156687Y-120208827D01*
X127641600Y-119751620D01*
X127225131Y-119203078D01*
X126923138Y-118584086D01*
X126746360Y-117915331D01*
X126743713Y-117898631D01*
X126743713Y-114363600D01*
X127581504Y-114363600D01*
X127599895Y-114550323D01*
X127654360Y-114729869D01*
X127742806Y-114895341D01*
X127861834Y-115040378D01*
X128006871Y-115159406D01*
X128172343Y-115247852D01*
X128351889Y-115302317D01*
X128491827Y-115316100D01*
X130109397Y-115316100D01*
X130249335Y-115302317D01*
X130428881Y-115247852D01*
X130594353Y-115159406D01*
X130739390Y-115040378D01*
X130858418Y-114895341D01*
X130946864Y-114729869D01*
X131001329Y-114550323D01*
X131019720Y-114363600D01*
X131001329Y-114176877D01*
X130946864Y-113997331D01*
X130858418Y-113831859D01*
X130739390Y-113686822D01*
X130594353Y-113567794D01*
X130428881Y-113479348D01*
X130249335Y-113424883D01*
X130109397Y-113411100D01*
X128491827Y-113411100D01*
X128351889Y-113424883D01*
X128172343Y-113479348D01*
X128006871Y-113567794D01*
X127861834Y-113686822D01*
X127742806Y-113831859D01*
X127654360Y-113997331D01*
X127599895Y-114176877D01*
X127581504Y-114363600D01*
X126743713Y-114363600D01*
X126743713Y-99123600D01*
X127581504Y-99123600D01*
X127599895Y-99310323D01*
X127654360Y-99489869D01*
X127742806Y-99655341D01*
X127861834Y-99800378D01*
X128006871Y-99919406D01*
X128172343Y-100007852D01*
X128351889Y-100062317D01*
X128491827Y-100076100D01*
X129875942Y-100076100D01*
X131713912Y-101914070D01*
X131713912Y-103699730D01*
X130515653Y-102501471D01*
X130594353Y-102459406D01*
X130739390Y-102340378D01*
X130858418Y-102195341D01*
X130946864Y-102029869D01*
X131001329Y-101850323D01*
X131019720Y-101663600D01*
X131001329Y-101476877D01*
X130946864Y-101297331D01*
X130858418Y-101131859D01*
X130739390Y-100986822D01*
X130594353Y-100867794D01*
X130428881Y-100779348D01*
X130249335Y-100724883D01*
X130109397Y-100711100D01*
X128491827Y-100711100D01*
X128351889Y-100724883D01*
X128172343Y-100779348D01*
X128006871Y-100867794D01*
X127861834Y-100986822D01*
X127742806Y-101131859D01*
X127654360Y-101297331D01*
X127599895Y-101476877D01*
X127581504Y-101663600D01*
X127599895Y-101850323D01*
X127654360Y-102029869D01*
X127742806Y-102195341D01*
X127861834Y-102340378D01*
X128006871Y-102459406D01*
X128172343Y-102547852D01*
X128351889Y-102602317D01*
X128491827Y-102616100D01*
X129875942Y-102616100D01*
X131409102Y-104149260D01*
X131409103Y-105934920D01*
X130515654Y-105041471D01*
X130594353Y-104999406D01*
X130739390Y-104880378D01*
X130858418Y-104735341D01*
X130946864Y-104569869D01*
X131001329Y-104390323D01*
X131019720Y-104203600D01*
X131001329Y-104016877D01*
X130946864Y-103837331D01*
X130858418Y-103671859D01*
X130739390Y-103526822D01*
X130594353Y-103407794D01*
X130428881Y-103319348D01*
X130249335Y-103264883D01*
X130109397Y-103251100D01*
X128491827Y-103251100D01*
X128351889Y-103264883D01*
X128172343Y-103319348D01*
X128006871Y-103407794D01*
X127861834Y-103526822D01*
X127742806Y-103671859D01*
X127654360Y-103837331D01*
X127599895Y-104016877D01*
X127581504Y-104203600D01*
X127599895Y-104390323D01*
X127654360Y-104569869D01*
X127742806Y-104735341D01*
X127861834Y-104880378D01*
X128006871Y-104999406D01*
X128172343Y-105087852D01*
X128351889Y-105142317D01*
X128491827Y-105156100D01*
X129875942Y-105156100D01*
X131091312Y-106371471D01*
X131091312Y-108157129D01*
X130515654Y-107581471D01*
X130594353Y-107539406D01*
X130739390Y-107420378D01*
X130858418Y-107275341D01*
X130946864Y-107109869D01*
X131001329Y-106930323D01*
X131019720Y-106743600D01*
X131001329Y-106556877D01*
X130946864Y-106377331D01*
X130858418Y-106211859D01*
X130739390Y-106066822D01*
X130594353Y-105947794D01*
X130428881Y-105859348D01*
X130249335Y-105804883D01*
X130109397Y-105791100D01*
X128491827Y-105791100D01*
X128351889Y-105804883D01*
X128172343Y-105859348D01*
X128006871Y-105947794D01*
X127861834Y-106066822D01*
X127742806Y-106211859D01*
X127654360Y-106377331D01*
X127599895Y-106556877D01*
X127581504Y-106743600D01*
X127599895Y-106930323D01*
X127654360Y-107109869D01*
X127742806Y-107275341D01*
X127861834Y-107420378D01*
X128006871Y-107539406D01*
X128172343Y-107627852D01*
X128351889Y-107682317D01*
X128491827Y-107696100D01*
X129875942Y-107696100D01*
X130786512Y-108606671D01*
X130786512Y-108664241D01*
X130739390Y-108606822D01*
X130594353Y-108487794D01*
X130428881Y-108399348D01*
X130249335Y-108344883D01*
X130109397Y-108331100D01*
X128491827Y-108331100D01*
X128351889Y-108344883D01*
X128172343Y-108399348D01*
X128006871Y-108487794D01*
X127861834Y-108606822D01*
X127742806Y-108751859D01*
X127654360Y-108917331D01*
X127599895Y-109096877D01*
X127581504Y-109283600D01*
X127599895Y-109470323D01*
X127654360Y-109649869D01*
X127742806Y-109815341D01*
X127861834Y-109960378D01*
X128006871Y-110079406D01*
X128172343Y-110167852D01*
X128351889Y-110222317D01*
X128491827Y-110236100D01*
X130109397Y-110236100D01*
X130249335Y-110222317D01*
X130428881Y-110167852D01*
X130594353Y-110079406D01*
X130739390Y-109960378D01*
X130786513Y-109902959D01*
X130786513Y-111120106D01*
X130785222Y-111133212D01*
X130789586Y-111177510D01*
X130790372Y-111185494D01*
X130805623Y-111235767D01*
X130830387Y-111282099D01*
X130863715Y-111322710D01*
X130873891Y-111331061D01*
X134563912Y-115021082D01*
X134563912Y-115168513D01*
X134561231Y-115169624D01*
X134468087Y-115231862D01*
X134388874Y-115311075D01*
X134326636Y-115404219D01*
X134283767Y-115507716D01*
X134261912Y-115617588D01*
X134261912Y-115729612D01*
X134283767Y-115839484D01*
X134326636Y-115942981D01*
X134388874Y-116036125D01*
X134468087Y-116115338D01*
X134561231Y-116177576D01*
X134664728Y-116220445D01*
X134774600Y-116242300D01*
X134886624Y-116242300D01*
X134940349Y-116231613D01*
X134940349Y-116336412D01*
X134962204Y-116446284D01*
X135005073Y-116549781D01*
X135067311Y-116642925D01*
X135146524Y-116722138D01*
X135239668Y-116784376D01*
X135343165Y-116827245D01*
X135453037Y-116849100D01*
X135565061Y-116849100D01*
X135620787Y-116838015D01*
X135620787Y-116941212D01*
X135642642Y-117051084D01*
X135685511Y-117154581D01*
X135747749Y-117247725D01*
X135826962Y-117326938D01*
X135920106Y-117389176D01*
X136023603Y-117432045D01*
X136133475Y-117453900D01*
X136245499Y-117453900D01*
X136339768Y-117435149D01*
X136339768Y-117507469D01*
X136361623Y-117617341D01*
X136404492Y-117720838D01*
X136466730Y-117813982D01*
X136545943Y-117893195D01*
X136639087Y-117955433D01*
X136742584Y-117998302D01*
X136852456Y-118020157D01*
X136964480Y-118020157D01*
X137074352Y-117998302D01*
X137177849Y-117955433D01*
X137270993Y-117893195D01*
X137350206Y-117813982D01*
X137412444Y-117720838D01*
X137455313Y-117617341D01*
X137477168Y-117507469D01*
X137477168Y-117395445D01*
X137455313Y-117285573D01*
X137412444Y-117182076D01*
X137350206Y-117088932D01*
X137270993Y-117009719D01*
X137177849Y-116947481D01*
X137175168Y-116946371D01*
X137175168Y-116698188D01*
X140261912Y-116698188D01*
X140261912Y-116810212D01*
X140283767Y-116920084D01*
X140326636Y-117023581D01*
X140388874Y-117116725D01*
X140468087Y-117195938D01*
X140561231Y-117258176D01*
X140664728Y-117301045D01*
X140774600Y-117322900D01*
X140886624Y-117322900D01*
X140996496Y-117301045D01*
X141099993Y-117258176D01*
X141193137Y-117195938D01*
X141272350Y-117116725D01*
X141334588Y-117023581D01*
X141335698Y-117020900D01*
X141736916Y-117020900D01*
X141750012Y-117022190D01*
X141763108Y-117020900D01*
X141763110Y-117020900D01*
X141802294Y-117017041D01*
X141852567Y-117001790D01*
X141898899Y-116977026D01*
X141939510Y-116943698D01*
X141947866Y-116933516D01*
X143009928Y-115871454D01*
X143020110Y-115863098D01*
X143053438Y-115822487D01*
X143078202Y-115776155D01*
X143093453Y-115725882D01*
X143097312Y-115686698D01*
X143097312Y-115686697D01*
X143098602Y-115673601D01*
X143097312Y-115660505D01*
X143097312Y-114500575D01*
X155786112Y-114500575D01*
X155786112Y-114686625D01*
X155822409Y-114869100D01*
X155893607Y-115040989D01*
X155996971Y-115195684D01*
X156128528Y-115327241D01*
X156283223Y-115430605D01*
X156455112Y-115501803D01*
X156637587Y-115538100D01*
X156823637Y-115538100D01*
X157006112Y-115501803D01*
X157178001Y-115430605D01*
X157332696Y-115327241D01*
X157464253Y-115195684D01*
X157567617Y-115040989D01*
X157638815Y-114869100D01*
X157675112Y-114686625D01*
X157675112Y-114500575D01*
X160286112Y-114500575D01*
X160286112Y-114686625D01*
X160322409Y-114869100D01*
X160393607Y-115040989D01*
X160496971Y-115195684D01*
X160628528Y-115327241D01*
X160783223Y-115430605D01*
X160955112Y-115501803D01*
X161137587Y-115538100D01*
X161323637Y-115538100D01*
X161506112Y-115501803D01*
X161678001Y-115430605D01*
X161832696Y-115327241D01*
X161964253Y-115195684D01*
X162067617Y-115040989D01*
X162138815Y-114869100D01*
X162175112Y-114686625D01*
X162175112Y-114500575D01*
X162147866Y-114363600D01*
X165681504Y-114363600D01*
X165699895Y-114550323D01*
X165754360Y-114729869D01*
X165842806Y-114895341D01*
X165961834Y-115040378D01*
X166106871Y-115159406D01*
X166272343Y-115247852D01*
X166451889Y-115302317D01*
X166591827Y-115316100D01*
X168209397Y-115316100D01*
X168349335Y-115302317D01*
X168528881Y-115247852D01*
X168694353Y-115159406D01*
X168839390Y-115040378D01*
X168958418Y-114895341D01*
X169046864Y-114729869D01*
X169101329Y-114550323D01*
X169119720Y-114363600D01*
X169101329Y-114176877D01*
X169046864Y-113997331D01*
X168958418Y-113831859D01*
X168839390Y-113686822D01*
X168694353Y-113567794D01*
X168528881Y-113479348D01*
X168349335Y-113424883D01*
X168209397Y-113411100D01*
X166591827Y-113411100D01*
X166451889Y-113424883D01*
X166272343Y-113479348D01*
X166106871Y-113567794D01*
X165961834Y-113686822D01*
X165842806Y-113831859D01*
X165754360Y-113997331D01*
X165699895Y-114176877D01*
X165681504Y-114363600D01*
X162147866Y-114363600D01*
X162138815Y-114318100D01*
X162067617Y-114146211D01*
X161964253Y-113991516D01*
X161832696Y-113859959D01*
X161678001Y-113756595D01*
X161506112Y-113685397D01*
X161323637Y-113649100D01*
X161137587Y-113649100D01*
X160955112Y-113685397D01*
X160783223Y-113756595D01*
X160628528Y-113859959D01*
X160496971Y-113991516D01*
X160393607Y-114146211D01*
X160322409Y-114318100D01*
X160286112Y-114500575D01*
X157675112Y-114500575D01*
X157638815Y-114318100D01*
X157567617Y-114146211D01*
X157464253Y-113991516D01*
X157332696Y-113859959D01*
X157178001Y-113756595D01*
X157006112Y-113685397D01*
X156823637Y-113649100D01*
X156637587Y-113649100D01*
X156455112Y-113685397D01*
X156283223Y-113756595D01*
X156128528Y-113859959D01*
X155996971Y-113991516D01*
X155893607Y-114146211D01*
X155822409Y-114318100D01*
X155786112Y-114500575D01*
X143097312Y-114500575D01*
X143097312Y-110573707D01*
X143098602Y-110560611D01*
X143094637Y-110520355D01*
X143093453Y-110508330D01*
X143078202Y-110458057D01*
X143053438Y-110411725D01*
X143020110Y-110371114D01*
X143009933Y-110362762D01*
X142721421Y-110074250D01*
X142721421Y-108735000D01*
X142717743Y-108697656D01*
X142706850Y-108661746D01*
X142689161Y-108628652D01*
X142665355Y-108599645D01*
X142636348Y-108575839D01*
X142603254Y-108558150D01*
X142567344Y-108547257D01*
X142530000Y-108543579D01*
X141130000Y-108543579D01*
X141092656Y-108547257D01*
X141056746Y-108558150D01*
X141023652Y-108575839D01*
X140994645Y-108599645D01*
X140970839Y-108628652D01*
X140953150Y-108661746D01*
X140942257Y-108697656D01*
X140938579Y-108735000D01*
X140938579Y-110385000D01*
X140942257Y-110422344D01*
X140953150Y-110458254D01*
X140970839Y-110491348D01*
X140994645Y-110520355D01*
X141023652Y-110544161D01*
X141056746Y-110561850D01*
X141092656Y-110572743D01*
X141130000Y-110576421D01*
X142469250Y-110576421D01*
X142563913Y-110671084D01*
X142563913Y-110946919D01*
X142530000Y-110943579D01*
X141130000Y-110943579D01*
X141092656Y-110947257D01*
X141056746Y-110958150D01*
X141023652Y-110975839D01*
X140994645Y-110999645D01*
X140970839Y-111028652D01*
X140953150Y-111061746D01*
X140942257Y-111097656D01*
X140938579Y-111135000D01*
X140938579Y-112785000D01*
X140942257Y-112822344D01*
X140953150Y-112858254D01*
X140970839Y-112891348D01*
X140994645Y-112920355D01*
X141023652Y-112944161D01*
X141056746Y-112961850D01*
X141092656Y-112972743D01*
X141130000Y-112976421D01*
X141663301Y-112976421D01*
X141663300Y-115400752D01*
X141586624Y-115385500D01*
X141474600Y-115385500D01*
X141364728Y-115407355D01*
X141261231Y-115450224D01*
X141168087Y-115512462D01*
X141088874Y-115591675D01*
X141026636Y-115684819D01*
X140983767Y-115788316D01*
X140961912Y-115898188D01*
X140961912Y-116010212D01*
X140983767Y-116120084D01*
X141024765Y-116219064D01*
X140996496Y-116207355D01*
X140886624Y-116185500D01*
X140774600Y-116185500D01*
X140664728Y-116207355D01*
X140561231Y-116250224D01*
X140468087Y-116312462D01*
X140388874Y-116391675D01*
X140326636Y-116484819D01*
X140283767Y-116588316D01*
X140261912Y-116698188D01*
X137175168Y-116698188D01*
X137175168Y-115644290D01*
X137176458Y-115631194D01*
X137175118Y-115617588D01*
X137171309Y-115578912D01*
X137156058Y-115528639D01*
X137156058Y-115528638D01*
X137141714Y-115501803D01*
X137131294Y-115482307D01*
X137097966Y-115441696D01*
X137087790Y-115433345D01*
X132247312Y-110592868D01*
X132247312Y-108000575D01*
X155786112Y-108000575D01*
X155786112Y-108186625D01*
X155822409Y-108369100D01*
X155893607Y-108540989D01*
X155996971Y-108695684D01*
X156128528Y-108827241D01*
X156283223Y-108930605D01*
X156455112Y-109001803D01*
X156637587Y-109038100D01*
X156823637Y-109038100D01*
X157006112Y-109001803D01*
X157178001Y-108930605D01*
X157332696Y-108827241D01*
X157464253Y-108695684D01*
X157567617Y-108540989D01*
X157638815Y-108369100D01*
X157675112Y-108186625D01*
X157675112Y-108000575D01*
X160286112Y-108000575D01*
X160286112Y-108186625D01*
X160322409Y-108369100D01*
X160393607Y-108540989D01*
X160496971Y-108695684D01*
X160628528Y-108827241D01*
X160783223Y-108930605D01*
X160955112Y-109001803D01*
X161137587Y-109038100D01*
X161323637Y-109038100D01*
X161506112Y-109001803D01*
X161678001Y-108930605D01*
X161832696Y-108827241D01*
X161964253Y-108695684D01*
X162067617Y-108540989D01*
X162138815Y-108369100D01*
X162175112Y-108186625D01*
X162175112Y-108000575D01*
X162138815Y-107818100D01*
X162067617Y-107646211D01*
X161964253Y-107491516D01*
X161832696Y-107359959D01*
X161678001Y-107256595D01*
X161506112Y-107185397D01*
X161323637Y-107149100D01*
X161137587Y-107149100D01*
X160955112Y-107185397D01*
X160783223Y-107256595D01*
X160628528Y-107359959D01*
X160496971Y-107491516D01*
X160393607Y-107646211D01*
X160322409Y-107818100D01*
X160286112Y-108000575D01*
X157675112Y-108000575D01*
X157638815Y-107818100D01*
X157567617Y-107646211D01*
X157464253Y-107491516D01*
X157332696Y-107359959D01*
X157178001Y-107256595D01*
X157006112Y-107185397D01*
X156823637Y-107149100D01*
X156637587Y-107149100D01*
X156455112Y-107185397D01*
X156283223Y-107256595D01*
X156128528Y-107359959D01*
X155996971Y-107491516D01*
X155893607Y-107646211D01*
X155822409Y-107818100D01*
X155786112Y-108000575D01*
X132247312Y-108000575D01*
X132247312Y-104600575D01*
X155786112Y-104600575D01*
X155786112Y-104786625D01*
X155822409Y-104969100D01*
X155893607Y-105140989D01*
X155996971Y-105295684D01*
X156128528Y-105427241D01*
X156283223Y-105530605D01*
X156455112Y-105601803D01*
X156637587Y-105638100D01*
X156823637Y-105638100D01*
X157006112Y-105601803D01*
X157178001Y-105530605D01*
X157185462Y-105525620D01*
X158142762Y-106482921D01*
X158151114Y-106493098D01*
X158191725Y-106526426D01*
X158213292Y-106537953D01*
X158238056Y-106551190D01*
X158247659Y-106554103D01*
X158288330Y-106566441D01*
X158327514Y-106570300D01*
X158327516Y-106570300D01*
X158340612Y-106571590D01*
X158353708Y-106570300D01*
X161770142Y-106570300D01*
X166185570Y-110985729D01*
X166106871Y-111027794D01*
X165961834Y-111146822D01*
X165842806Y-111291859D01*
X165754360Y-111457331D01*
X165699895Y-111636877D01*
X165681504Y-111823600D01*
X165699895Y-112010323D01*
X165754360Y-112189869D01*
X165842806Y-112355341D01*
X165961834Y-112500378D01*
X166106871Y-112619406D01*
X166272343Y-112707852D01*
X166451889Y-112762317D01*
X166591827Y-112776100D01*
X168209397Y-112776100D01*
X168349335Y-112762317D01*
X168528881Y-112707852D01*
X168694353Y-112619406D01*
X168839390Y-112500378D01*
X168958418Y-112355341D01*
X169046864Y-112189869D01*
X169101329Y-112010323D01*
X169119720Y-111823600D01*
X169101329Y-111636877D01*
X169046864Y-111457331D01*
X168958418Y-111291859D01*
X168839390Y-111146822D01*
X168694353Y-111027794D01*
X168528881Y-110939348D01*
X168349335Y-110884883D01*
X168209397Y-110871100D01*
X166825283Y-110871100D01*
X165237783Y-109283600D01*
X165681504Y-109283600D01*
X165699895Y-109470323D01*
X165754360Y-109649869D01*
X165842806Y-109815341D01*
X165961834Y-109960378D01*
X166106871Y-110079406D01*
X166272343Y-110167852D01*
X166451889Y-110222317D01*
X166591827Y-110236100D01*
X168209397Y-110236100D01*
X168349335Y-110222317D01*
X168528881Y-110167852D01*
X168694353Y-110079406D01*
X168839390Y-109960378D01*
X168958418Y-109815341D01*
X169046864Y-109649869D01*
X169101329Y-109470323D01*
X169119720Y-109283600D01*
X169101329Y-109096877D01*
X169046864Y-108917331D01*
X168958418Y-108751859D01*
X168839390Y-108606822D01*
X168694353Y-108487794D01*
X168528881Y-108399348D01*
X168349335Y-108344883D01*
X168209397Y-108331100D01*
X166591827Y-108331100D01*
X166451889Y-108344883D01*
X166272343Y-108399348D01*
X166106871Y-108487794D01*
X165961834Y-108606822D01*
X165842806Y-108751859D01*
X165754360Y-108917331D01*
X165699895Y-109096877D01*
X165681504Y-109283600D01*
X165237783Y-109283600D01*
X162697783Y-106743600D01*
X165681504Y-106743600D01*
X165699895Y-106930323D01*
X165754360Y-107109869D01*
X165842806Y-107275341D01*
X165961834Y-107420378D01*
X166106871Y-107539406D01*
X166272343Y-107627852D01*
X166451889Y-107682317D01*
X166591827Y-107696100D01*
X168209397Y-107696100D01*
X168349335Y-107682317D01*
X168528881Y-107627852D01*
X168694353Y-107539406D01*
X168839390Y-107420378D01*
X168958418Y-107275341D01*
X169046864Y-107109869D01*
X169101329Y-106930323D01*
X169119720Y-106743600D01*
X169101329Y-106556877D01*
X169046864Y-106377331D01*
X168958418Y-106211859D01*
X168839390Y-106066822D01*
X168694353Y-105947794D01*
X168528881Y-105859348D01*
X168349335Y-105804883D01*
X168209397Y-105791100D01*
X166591827Y-105791100D01*
X166451889Y-105804883D01*
X166272343Y-105859348D01*
X166106871Y-105947794D01*
X165961834Y-106066822D01*
X165842806Y-106211859D01*
X165754360Y-106377331D01*
X165699895Y-106556877D01*
X165681504Y-106743600D01*
X162697783Y-106743600D01*
X162078466Y-106124284D01*
X162070110Y-106114102D01*
X162029499Y-106080774D01*
X161983167Y-106056010D01*
X161932894Y-106040759D01*
X161893710Y-106036900D01*
X161893708Y-106036900D01*
X161880612Y-106035610D01*
X161867516Y-106036900D01*
X158451083Y-106036900D01*
X157562632Y-105148450D01*
X157567617Y-105140989D01*
X157638815Y-104969100D01*
X157675112Y-104786625D01*
X157675112Y-104600575D01*
X160286112Y-104600575D01*
X160286112Y-104786625D01*
X160322409Y-104969100D01*
X160393607Y-105140989D01*
X160496971Y-105295684D01*
X160628528Y-105427241D01*
X160783223Y-105530605D01*
X160955112Y-105601803D01*
X161137587Y-105638100D01*
X161323637Y-105638100D01*
X161506112Y-105601803D01*
X161678001Y-105530605D01*
X161832696Y-105427241D01*
X161964253Y-105295684D01*
X162067617Y-105140989D01*
X162138815Y-104969100D01*
X162175112Y-104786625D01*
X162175112Y-104600575D01*
X162138815Y-104418100D01*
X162067617Y-104246211D01*
X161964253Y-104091516D01*
X161832696Y-103959959D01*
X161678001Y-103856595D01*
X161506112Y-103785397D01*
X161323637Y-103749100D01*
X161137587Y-103749100D01*
X160955112Y-103785397D01*
X160783223Y-103856595D01*
X160628528Y-103959959D01*
X160496971Y-104091516D01*
X160393607Y-104246211D01*
X160322409Y-104418100D01*
X160286112Y-104600575D01*
X157675112Y-104600575D01*
X157638815Y-104418100D01*
X157567617Y-104246211D01*
X157464253Y-104091516D01*
X157332696Y-103959959D01*
X157178001Y-103856595D01*
X157006112Y-103785397D01*
X156823637Y-103749100D01*
X156637587Y-103749100D01*
X156455112Y-103785397D01*
X156283223Y-103856595D01*
X156128528Y-103959959D01*
X155996971Y-104091516D01*
X155893607Y-104246211D01*
X155822409Y-104418100D01*
X155786112Y-104600575D01*
X132247312Y-104600575D01*
X132247312Y-101816695D01*
X132248602Y-101803599D01*
X132244914Y-101766155D01*
X132243453Y-101751318D01*
X132228202Y-101701045D01*
X132203438Y-101654713D01*
X132170110Y-101614102D01*
X132159928Y-101605746D01*
X130515653Y-99961471D01*
X130594353Y-99919406D01*
X130739390Y-99800378D01*
X130858418Y-99655341D01*
X130946864Y-99489869D01*
X131001329Y-99310323D01*
X131019720Y-99123600D01*
X131001329Y-98936877D01*
X130946864Y-98757331D01*
X130858418Y-98591859D01*
X130739390Y-98446822D01*
X130594353Y-98327794D01*
X130428881Y-98239348D01*
X130249335Y-98184883D01*
X130109397Y-98171100D01*
X128491827Y-98171100D01*
X128351889Y-98184883D01*
X128172343Y-98239348D01*
X128006871Y-98327794D01*
X127861834Y-98446822D01*
X127742806Y-98591859D01*
X127654360Y-98757331D01*
X127599895Y-98936877D01*
X127581504Y-99123600D01*
X126743713Y-99123600D01*
X126743713Y-98100575D01*
X155786112Y-98100575D01*
X155786112Y-98286625D01*
X155822409Y-98469100D01*
X155893607Y-98640989D01*
X155996971Y-98795684D01*
X156128528Y-98927241D01*
X156283223Y-99030605D01*
X156455112Y-99101803D01*
X156637587Y-99138100D01*
X156823637Y-99138100D01*
X157006112Y-99101803D01*
X157178001Y-99030605D01*
X157332696Y-98927241D01*
X157464253Y-98795684D01*
X157567617Y-98640989D01*
X157638815Y-98469100D01*
X157675112Y-98286625D01*
X157675112Y-98100575D01*
X160286112Y-98100575D01*
X160286112Y-98286625D01*
X160322409Y-98469100D01*
X160393607Y-98640989D01*
X160496971Y-98795684D01*
X160628528Y-98927241D01*
X160783223Y-99030605D01*
X160955112Y-99101803D01*
X161137587Y-99138100D01*
X161323637Y-99138100D01*
X161506112Y-99101803D01*
X161678001Y-99030605D01*
X161832696Y-98927241D01*
X161964253Y-98795684D01*
X162067617Y-98640989D01*
X162138815Y-98469100D01*
X162175112Y-98286625D01*
X162175112Y-98100575D01*
X162138815Y-97918100D01*
X162067617Y-97746211D01*
X161964253Y-97591516D01*
X161832696Y-97459959D01*
X161678001Y-97356595D01*
X161506112Y-97285397D01*
X161323637Y-97249100D01*
X161137587Y-97249100D01*
X160955112Y-97285397D01*
X160783223Y-97356595D01*
X160628528Y-97459959D01*
X160496971Y-97591516D01*
X160393607Y-97746211D01*
X160322409Y-97918100D01*
X160286112Y-98100575D01*
X157675112Y-98100575D01*
X157638815Y-97918100D01*
X157567617Y-97746211D01*
X157464253Y-97591516D01*
X157332696Y-97459959D01*
X157178001Y-97356595D01*
X157006112Y-97285397D01*
X156823637Y-97249100D01*
X156637587Y-97249100D01*
X156455112Y-97285397D01*
X156283223Y-97356595D01*
X156128528Y-97459959D01*
X155996971Y-97591516D01*
X155893607Y-97746211D01*
X155822409Y-97918100D01*
X155786112Y-98100575D01*
X126743713Y-98100575D01*
X126743713Y-96583600D01*
X127581504Y-96583600D01*
X127599895Y-96770323D01*
X127654360Y-96949869D01*
X127742806Y-97115341D01*
X127861834Y-97260378D01*
X128006871Y-97379406D01*
X128172343Y-97467852D01*
X128351889Y-97522317D01*
X128491827Y-97536100D01*
X130109397Y-97536100D01*
X130249335Y-97522317D01*
X130428881Y-97467852D01*
X130594353Y-97379406D01*
X130739390Y-97260378D01*
X130858418Y-97115341D01*
X130946864Y-96949869D01*
X131001329Y-96770323D01*
X131019720Y-96583600D01*
X131001329Y-96396877D01*
X130946864Y-96217331D01*
X130858418Y-96051859D01*
X130739390Y-95906822D01*
X130594353Y-95787794D01*
X130428881Y-95699348D01*
X130249335Y-95644883D01*
X130109397Y-95631100D01*
X128491827Y-95631100D01*
X128351889Y-95644883D01*
X128172343Y-95699348D01*
X128006871Y-95787794D01*
X127861834Y-95906822D01*
X127742806Y-96051859D01*
X127654360Y-96217331D01*
X127599895Y-96396877D01*
X127581504Y-96583600D01*
X126743713Y-96583600D01*
X126743713Y-92614816D01*
X159068112Y-92614816D01*
X159068113Y-94232385D01*
X159081896Y-94372323D01*
X159136361Y-94551869D01*
X159224807Y-94717341D01*
X159343835Y-94862378D01*
X159488872Y-94981406D01*
X159654344Y-95069852D01*
X159833890Y-95124317D01*
X160020612Y-95142708D01*
X160207335Y-95124317D01*
X160386881Y-95069852D01*
X160552353Y-94981406D01*
X160697390Y-94862378D01*
X160816418Y-94717341D01*
X160858483Y-94638641D01*
X162713912Y-96494070D01*
X162713913Y-101090494D01*
X162712622Y-101103600D01*
X162715406Y-101131859D01*
X162717772Y-101155882D01*
X162733023Y-101206155D01*
X162757787Y-101252487D01*
X162791115Y-101293098D01*
X162801291Y-101301449D01*
X165683471Y-104183630D01*
X165681504Y-104203600D01*
X165699895Y-104390323D01*
X165754360Y-104569869D01*
X165842806Y-104735341D01*
X165961834Y-104880378D01*
X166106871Y-104999406D01*
X166272343Y-105087852D01*
X166451889Y-105142317D01*
X166591827Y-105156100D01*
X168209397Y-105156100D01*
X168349335Y-105142317D01*
X168528881Y-105087852D01*
X168694353Y-104999406D01*
X168839390Y-104880378D01*
X168958418Y-104735341D01*
X169046864Y-104569869D01*
X169101329Y-104390323D01*
X169119720Y-104203600D01*
X169101329Y-104016877D01*
X169046864Y-103837331D01*
X168958418Y-103671859D01*
X168839390Y-103526822D01*
X168694353Y-103407794D01*
X168528881Y-103319348D01*
X168349335Y-103264883D01*
X168209397Y-103251100D01*
X166591827Y-103251100D01*
X166451889Y-103264883D01*
X166272343Y-103319348D01*
X166106871Y-103407794D01*
X165961834Y-103526822D01*
X165880325Y-103626142D01*
X163917783Y-101663600D01*
X165681504Y-101663600D01*
X165699895Y-101850323D01*
X165754360Y-102029869D01*
X165842806Y-102195341D01*
X165961834Y-102340378D01*
X166106871Y-102459406D01*
X166272343Y-102547852D01*
X166451889Y-102602317D01*
X166591827Y-102616100D01*
X168209397Y-102616100D01*
X168349335Y-102602317D01*
X168528881Y-102547852D01*
X168694353Y-102459406D01*
X168839390Y-102340378D01*
X168958418Y-102195341D01*
X169046864Y-102029869D01*
X169101329Y-101850323D01*
X169119720Y-101663600D01*
X169101329Y-101476877D01*
X169046864Y-101297331D01*
X168958418Y-101131859D01*
X168839390Y-100986822D01*
X168694353Y-100867794D01*
X168528881Y-100779348D01*
X168349335Y-100724883D01*
X168209397Y-100711100D01*
X166591827Y-100711100D01*
X166451889Y-100724883D01*
X166272343Y-100779348D01*
X166106871Y-100867794D01*
X165961834Y-100986822D01*
X165842806Y-101131859D01*
X165754360Y-101297331D01*
X165699895Y-101476877D01*
X165681504Y-101663600D01*
X163917783Y-101663600D01*
X163247312Y-100993130D01*
X163247312Y-99123600D01*
X165681504Y-99123600D01*
X165699895Y-99310323D01*
X165754360Y-99489869D01*
X165842806Y-99655341D01*
X165961834Y-99800378D01*
X166106871Y-99919406D01*
X166272343Y-100007852D01*
X166451889Y-100062317D01*
X166591827Y-100076100D01*
X168209397Y-100076100D01*
X168349335Y-100062317D01*
X168528881Y-100007852D01*
X168694353Y-99919406D01*
X168839390Y-99800378D01*
X168958418Y-99655341D01*
X169046864Y-99489869D01*
X169101329Y-99310323D01*
X169119720Y-99123600D01*
X169101329Y-98936877D01*
X169046864Y-98757331D01*
X168958418Y-98591859D01*
X168839390Y-98446822D01*
X168694353Y-98327794D01*
X168528881Y-98239348D01*
X168349335Y-98184883D01*
X168209397Y-98171100D01*
X166591827Y-98171100D01*
X166451889Y-98184883D01*
X166272343Y-98239348D01*
X166106871Y-98327794D01*
X165961834Y-98446822D01*
X165842806Y-98591859D01*
X165754360Y-98757331D01*
X165699895Y-98936877D01*
X165681504Y-99123600D01*
X163247312Y-99123600D01*
X163247312Y-96583600D01*
X165681504Y-96583600D01*
X165699895Y-96770323D01*
X165754360Y-96949869D01*
X165842806Y-97115341D01*
X165961834Y-97260378D01*
X166106871Y-97379406D01*
X166272343Y-97467852D01*
X166451889Y-97522317D01*
X166591827Y-97536100D01*
X168209397Y-97536100D01*
X168349335Y-97522317D01*
X168528881Y-97467852D01*
X168694353Y-97379406D01*
X168839390Y-97260378D01*
X168958418Y-97115341D01*
X169046864Y-96949869D01*
X169101329Y-96770323D01*
X169119720Y-96583600D01*
X169101329Y-96396877D01*
X169046864Y-96217331D01*
X168958418Y-96051859D01*
X168839390Y-95906822D01*
X168694353Y-95787794D01*
X168528881Y-95699348D01*
X168349335Y-95644883D01*
X168209397Y-95631100D01*
X166591827Y-95631100D01*
X166451889Y-95644883D01*
X166272343Y-95699348D01*
X166106871Y-95787794D01*
X165961834Y-95906822D01*
X165842806Y-96051859D01*
X165754360Y-96217331D01*
X165699895Y-96396877D01*
X165681504Y-96583600D01*
X163247312Y-96583600D01*
X163247312Y-96396695D01*
X163248602Y-96383599D01*
X163247312Y-96370502D01*
X163243453Y-96331318D01*
X163228202Y-96281045D01*
X163203438Y-96234713D01*
X163170110Y-96194102D01*
X163159928Y-96185746D01*
X160973112Y-93998930D01*
X160973112Y-92614815D01*
X160959329Y-92474877D01*
X160904864Y-92295331D01*
X160816418Y-92129859D01*
X160697390Y-91984822D01*
X160552353Y-91865794D01*
X160386880Y-91777348D01*
X160207334Y-91722883D01*
X160020612Y-91704492D01*
X159833889Y-91722883D01*
X159654343Y-91777348D01*
X159488871Y-91865794D01*
X159343834Y-91984822D01*
X159224806Y-92129859D01*
X159136360Y-92295332D01*
X159081895Y-92474878D01*
X159068112Y-92614816D01*
X126743713Y-92614816D01*
X126743713Y-92111577D01*
X126914628Y-91446233D01*
X127212292Y-90825150D01*
X127624922Y-90273712D01*
X128136803Y-89812923D01*
X128728439Y-89460333D01*
X129377286Y-89229374D01*
X130058643Y-89128843D01*
X130749534Y-89162716D01*
G37*
%TD.AperFunction*%
%TD*%
M02*
