%TF.GenerationSoftware,KiCad,Pcbnew,(5.1.10)-1*%
%TF.CreationDate,2022-10-31T15:34:45+09:00*%
%TF.ProjectId,IM920sL_module,494d3932-3073-44c5-9f6d-6f64756c652e,rev?*%
%TF.SameCoordinates,Original*%
%TF.FileFunction,Soldermask,Bot*%
%TF.FilePolarity,Negative*%
%FSLAX46Y46*%
G04 Gerber Fmt 4.6, Leading zero omitted, Abs format (unit mm)*
G04 Created by KiCad (PCBNEW (5.1.10)-1) date 2022-10-31 15:34:45*
%MOMM*%
%LPD*%
G01*
G04 APERTURE LIST*
%ADD10O,3.251200X1.727200*%
%ADD11O,1.727200X3.251200*%
%ADD12C,1.711200*%
G04 APERTURE END LIST*
D10*
%TO.C,JP1*%
X129300612Y-114363600D03*
X129300612Y-111823600D03*
X129300612Y-109283600D03*
X129300612Y-106743600D03*
X129300612Y-104203600D03*
X129300612Y-101663600D03*
X129300612Y-99123600D03*
X129300612Y-96583600D03*
%TD*%
%TO.C,JP2*%
X167400612Y-114363600D03*
X167400612Y-111823600D03*
X167400612Y-109283600D03*
X167400612Y-106743600D03*
X167400612Y-104203600D03*
X167400612Y-101663600D03*
X167400612Y-99123600D03*
X167400612Y-96583600D03*
%TD*%
D11*
%TO.C,AD_MODE1*%
X160020612Y-93423600D03*
X157480612Y-93423600D03*
%TD*%
%TO.C,R2*%
G36*
G01*
X140031600Y-108734999D02*
X140031600Y-110385001D01*
G75*
G02*
X139930001Y-110486600I-101599J0D01*
G01*
X138529999Y-110486600D01*
G75*
G02*
X138428400Y-110385001I0J101599D01*
G01*
X138428400Y-108734999D01*
G75*
G02*
X138529999Y-108633400I101599J0D01*
G01*
X139930001Y-108633400D01*
G75*
G02*
X140031600Y-108734999I0J-101599D01*
G01*
G37*
G36*
G01*
X142631600Y-108734999D02*
X142631600Y-110385001D01*
G75*
G02*
X142530001Y-110486600I-101599J0D01*
G01*
X141129999Y-110486600D01*
G75*
G02*
X141028400Y-110385001I0J101599D01*
G01*
X141028400Y-108734999D01*
G75*
G02*
X141129999Y-108633400I101599J0D01*
G01*
X142530001Y-108633400D01*
G75*
G02*
X142631600Y-108734999I0J-101599D01*
G01*
G37*
%TD*%
%TO.C,R3*%
G36*
G01*
X140031600Y-111134999D02*
X140031600Y-112785001D01*
G75*
G02*
X139930001Y-112886600I-101599J0D01*
G01*
X138529999Y-112886600D01*
G75*
G02*
X138428400Y-112785001I0J101599D01*
G01*
X138428400Y-111134999D01*
G75*
G02*
X138529999Y-111033400I101599J0D01*
G01*
X139930001Y-111033400D01*
G75*
G02*
X140031600Y-111134999I0J-101599D01*
G01*
G37*
G36*
G01*
X142631600Y-111134999D02*
X142631600Y-112785001D01*
G75*
G02*
X142530001Y-112886600I-101599J0D01*
G01*
X141129999Y-112886600D01*
G75*
G02*
X141028400Y-112785001I0J101599D01*
G01*
X141028400Y-111134999D01*
G75*
G02*
X141129999Y-111033400I101599J0D01*
G01*
X142530001Y-111033400D01*
G75*
G02*
X142631600Y-111134999I0J-101599D01*
G01*
G37*
%TD*%
D12*
%TO.C,SW1*%
X156730612Y-104693600D03*
X156730612Y-98193600D03*
X161230612Y-104693600D03*
X161230612Y-98193600D03*
%TD*%
%TO.C,SW2*%
X156730612Y-114593600D03*
X156730612Y-108093600D03*
X161230612Y-114593600D03*
X161230612Y-108093600D03*
%TD*%
M02*
