%TF.GenerationSoftware,KiCad,Pcbnew,(5.1.10)-1*%
%TF.CreationDate,2022-10-31T15:34:45+09:00*%
%TF.ProjectId,IM920sL_module,494d3932-3073-44c5-9f6d-6f64756c652e,rev?*%
%TF.SameCoordinates,Original*%
%TF.FileFunction,Soldermask,Top*%
%TF.FilePolarity,Negative*%
%FSLAX46Y46*%
G04 Gerber Fmt 4.6, Leading zero omitted, Abs format (unit mm)*
G04 Created by KiCad (PCBNEW (5.1.10)-1) date 2022-10-31 15:34:45*
%MOMM*%
%LPD*%
G01*
G04 APERTURE LIST*
%ADD10O,3.251200X1.727200*%
%ADD11O,1.727200X3.251200*%
%ADD12C,1.711200*%
G04 APERTURE END LIST*
D10*
%TO.C,JP1*%
X129300612Y-114363600D03*
X129300612Y-111823600D03*
X129300612Y-109283600D03*
X129300612Y-106743600D03*
X129300612Y-104203600D03*
X129300612Y-101663600D03*
X129300612Y-99123600D03*
X129300612Y-96583600D03*
%TD*%
%TO.C,JP2*%
X167400612Y-114363600D03*
X167400612Y-111823600D03*
X167400612Y-109283600D03*
X167400612Y-106743600D03*
X167400612Y-104203600D03*
X167400612Y-101663600D03*
X167400612Y-99123600D03*
X167400612Y-96583600D03*
%TD*%
%TO.C,STATUS*%
G36*
G01*
X160390612Y-118275200D02*
X159590612Y-118275200D01*
G75*
G02*
X159489012Y-118173600I0J101600D01*
G01*
X159489012Y-117373600D01*
G75*
G02*
X159590612Y-117272000I101600J0D01*
G01*
X160390612Y-117272000D01*
G75*
G02*
X160492212Y-117373600I0J-101600D01*
G01*
X160492212Y-118173600D01*
G75*
G02*
X160390612Y-118275200I-101600J0D01*
G01*
G37*
G36*
G01*
X158740612Y-118275200D02*
X157940612Y-118275200D01*
G75*
G02*
X157839012Y-118173600I0J101600D01*
G01*
X157839012Y-117373600D01*
G75*
G02*
X157940612Y-117272000I101600J0D01*
G01*
X158740612Y-117272000D01*
G75*
G02*
X158842212Y-117373600I0J-101600D01*
G01*
X158842212Y-118173600D01*
G75*
G02*
X158740612Y-118275200I-101600J0D01*
G01*
G37*
%TD*%
%TO.C,R1*%
G36*
G01*
X151302212Y-116728599D02*
X151302212Y-118378601D01*
G75*
G02*
X151200613Y-118480200I-101599J0D01*
G01*
X149800611Y-118480200D01*
G75*
G02*
X149699012Y-118378601I0J101599D01*
G01*
X149699012Y-116728599D01*
G75*
G02*
X149800611Y-116627000I101599J0D01*
G01*
X151200613Y-116627000D01*
G75*
G02*
X151302212Y-116728599I0J-101599D01*
G01*
G37*
G36*
G01*
X148702212Y-116728599D02*
X148702212Y-118378601D01*
G75*
G02*
X148600613Y-118480200I-101599J0D01*
G01*
X147200611Y-118480200D01*
G75*
G02*
X147099012Y-118378601I0J101599D01*
G01*
X147099012Y-116728599D01*
G75*
G02*
X147200611Y-116627000I101599J0D01*
G01*
X148600613Y-116627000D01*
G75*
G02*
X148702212Y-116728599I0J-101599D01*
G01*
G37*
%TD*%
D11*
%TO.C,AD_MODE1*%
X160020612Y-93423600D03*
X157480612Y-93423600D03*
%TD*%
%TO.C,C1*%
G36*
G01*
X145190612Y-115925200D02*
X144390612Y-115925200D01*
G75*
G02*
X144289012Y-115823600I0J101600D01*
G01*
X144289012Y-115123600D01*
G75*
G02*
X144390612Y-115022000I101600J0D01*
G01*
X145190612Y-115022000D01*
G75*
G02*
X145292212Y-115123600I0J-101600D01*
G01*
X145292212Y-115823600D01*
G75*
G02*
X145190612Y-115925200I-101600J0D01*
G01*
G37*
G36*
G01*
X145190612Y-117325200D02*
X144390612Y-117325200D01*
G75*
G02*
X144289012Y-117223600I0J101600D01*
G01*
X144289012Y-116523600D01*
G75*
G02*
X144390612Y-116422000I101600J0D01*
G01*
X145190612Y-116422000D01*
G75*
G02*
X145292212Y-116523600I0J-101600D01*
G01*
X145292212Y-117223600D01*
G75*
G02*
X145190612Y-117325200I-101600J0D01*
G01*
G37*
%TD*%
%TO.C,CN1*%
G36*
G01*
X138355612Y-115525200D02*
X138005612Y-115525200D01*
G75*
G02*
X137904012Y-115423600I0J101600D01*
G01*
X137904012Y-113823600D01*
G75*
G02*
X138005612Y-113722000I101600J0D01*
G01*
X138355612Y-113722000D01*
G75*
G02*
X138457212Y-113823600I0J-101600D01*
G01*
X138457212Y-115423600D01*
G75*
G02*
X138355612Y-115525200I-101600J0D01*
G01*
G37*
G36*
G01*
X138830612Y-115525200D02*
X138530612Y-115525200D01*
G75*
G02*
X138429012Y-115423600I0J101600D01*
G01*
X138429012Y-113823600D01*
G75*
G02*
X138530612Y-113722000I101600J0D01*
G01*
X138830612Y-113722000D01*
G75*
G02*
X138932212Y-113823600I0J-101600D01*
G01*
X138932212Y-115423600D01*
G75*
G02*
X138830612Y-115525200I-101600J0D01*
G01*
G37*
G36*
G01*
X139330612Y-115525200D02*
X139030612Y-115525200D01*
G75*
G02*
X138929012Y-115423600I0J101600D01*
G01*
X138929012Y-113823600D01*
G75*
G02*
X139030612Y-113722000I101600J0D01*
G01*
X139330612Y-113722000D01*
G75*
G02*
X139432212Y-113823600I0J-101600D01*
G01*
X139432212Y-115423600D01*
G75*
G02*
X139330612Y-115525200I-101600J0D01*
G01*
G37*
G36*
G01*
X139830612Y-115525200D02*
X139530612Y-115525200D01*
G75*
G02*
X139429012Y-115423600I0J101600D01*
G01*
X139429012Y-113823600D01*
G75*
G02*
X139530612Y-113722000I101600J0D01*
G01*
X139830612Y-113722000D01*
G75*
G02*
X139932212Y-113823600I0J-101600D01*
G01*
X139932212Y-115423600D01*
G75*
G02*
X139830612Y-115525200I-101600J0D01*
G01*
G37*
G36*
G01*
X140330612Y-115525200D02*
X140030612Y-115525200D01*
G75*
G02*
X139929012Y-115423600I0J101600D01*
G01*
X139929012Y-113823600D01*
G75*
G02*
X140030612Y-113722000I101600J0D01*
G01*
X140330612Y-113722000D01*
G75*
G02*
X140432212Y-113823600I0J-101600D01*
G01*
X140432212Y-115423600D01*
G75*
G02*
X140330612Y-115525200I-101600J0D01*
G01*
G37*
G36*
G01*
X140830612Y-115525200D02*
X140530612Y-115525200D01*
G75*
G02*
X140429012Y-115423600I0J101600D01*
G01*
X140429012Y-113823600D01*
G75*
G02*
X140530612Y-113722000I101600J0D01*
G01*
X140830612Y-113722000D01*
G75*
G02*
X140932212Y-113823600I0J-101600D01*
G01*
X140932212Y-115423600D01*
G75*
G02*
X140830612Y-115525200I-101600J0D01*
G01*
G37*
G36*
G01*
X141330612Y-115525200D02*
X141030612Y-115525200D01*
G75*
G02*
X140929012Y-115423600I0J101600D01*
G01*
X140929012Y-113823600D01*
G75*
G02*
X141030612Y-113722000I101600J0D01*
G01*
X141330612Y-113722000D01*
G75*
G02*
X141432212Y-113823600I0J-101600D01*
G01*
X141432212Y-115423600D01*
G75*
G02*
X141330612Y-115525200I-101600J0D01*
G01*
G37*
G36*
G01*
X141830612Y-115525200D02*
X141530612Y-115525200D01*
G75*
G02*
X141429012Y-115423600I0J101600D01*
G01*
X141429012Y-113823600D01*
G75*
G02*
X141530612Y-113722000I101600J0D01*
G01*
X141830612Y-113722000D01*
G75*
G02*
X141932212Y-113823600I0J-101600D01*
G01*
X141932212Y-115423600D01*
G75*
G02*
X141830612Y-115525200I-101600J0D01*
G01*
G37*
G36*
G01*
X142330612Y-115525200D02*
X142030612Y-115525200D01*
G75*
G02*
X141929012Y-115423600I0J101600D01*
G01*
X141929012Y-113823600D01*
G75*
G02*
X142030612Y-113722000I101600J0D01*
G01*
X142330612Y-113722000D01*
G75*
G02*
X142432212Y-113823600I0J-101600D01*
G01*
X142432212Y-115423600D01*
G75*
G02*
X142330612Y-115525200I-101600J0D01*
G01*
G37*
G36*
G01*
X142855612Y-115525200D02*
X142505612Y-115525200D01*
G75*
G02*
X142404012Y-115423600I0J101600D01*
G01*
X142404012Y-113823600D01*
G75*
G02*
X142505612Y-113722000I101600J0D01*
G01*
X142855612Y-113722000D01*
G75*
G02*
X142957212Y-113823600I0J-101600D01*
G01*
X142957212Y-115423600D01*
G75*
G02*
X142855612Y-115525200I-101600J0D01*
G01*
G37*
G36*
G01*
X142855612Y-119025200D02*
X142505612Y-119025200D01*
G75*
G02*
X142404012Y-118923600I0J101600D01*
G01*
X142404012Y-117323600D01*
G75*
G02*
X142505612Y-117222000I101600J0D01*
G01*
X142855612Y-117222000D01*
G75*
G02*
X142957212Y-117323600I0J-101600D01*
G01*
X142957212Y-118923600D01*
G75*
G02*
X142855612Y-119025200I-101600J0D01*
G01*
G37*
G36*
G01*
X142330612Y-119025200D02*
X142030612Y-119025200D01*
G75*
G02*
X141929012Y-118923600I0J101600D01*
G01*
X141929012Y-117323600D01*
G75*
G02*
X142030612Y-117222000I101600J0D01*
G01*
X142330612Y-117222000D01*
G75*
G02*
X142432212Y-117323600I0J-101600D01*
G01*
X142432212Y-118923600D01*
G75*
G02*
X142330612Y-119025200I-101600J0D01*
G01*
G37*
G36*
G01*
X141830612Y-119025200D02*
X141530612Y-119025200D01*
G75*
G02*
X141429012Y-118923600I0J101600D01*
G01*
X141429012Y-117323600D01*
G75*
G02*
X141530612Y-117222000I101600J0D01*
G01*
X141830612Y-117222000D01*
G75*
G02*
X141932212Y-117323600I0J-101600D01*
G01*
X141932212Y-118923600D01*
G75*
G02*
X141830612Y-119025200I-101600J0D01*
G01*
G37*
G36*
G01*
X141330612Y-119025200D02*
X141030612Y-119025200D01*
G75*
G02*
X140929012Y-118923600I0J101600D01*
G01*
X140929012Y-117323600D01*
G75*
G02*
X141030612Y-117222000I101600J0D01*
G01*
X141330612Y-117222000D01*
G75*
G02*
X141432212Y-117323600I0J-101600D01*
G01*
X141432212Y-118923600D01*
G75*
G02*
X141330612Y-119025200I-101600J0D01*
G01*
G37*
G36*
G01*
X140830612Y-119025200D02*
X140530612Y-119025200D01*
G75*
G02*
X140429012Y-118923600I0J101600D01*
G01*
X140429012Y-117323600D01*
G75*
G02*
X140530612Y-117222000I101600J0D01*
G01*
X140830612Y-117222000D01*
G75*
G02*
X140932212Y-117323600I0J-101600D01*
G01*
X140932212Y-118923600D01*
G75*
G02*
X140830612Y-119025200I-101600J0D01*
G01*
G37*
G36*
G01*
X140330612Y-119025200D02*
X140030612Y-119025200D01*
G75*
G02*
X139929012Y-118923600I0J101600D01*
G01*
X139929012Y-117323600D01*
G75*
G02*
X140030612Y-117222000I101600J0D01*
G01*
X140330612Y-117222000D01*
G75*
G02*
X140432212Y-117323600I0J-101600D01*
G01*
X140432212Y-118923600D01*
G75*
G02*
X140330612Y-119025200I-101600J0D01*
G01*
G37*
G36*
G01*
X139830612Y-119025200D02*
X139530612Y-119025200D01*
G75*
G02*
X139429012Y-118923600I0J101600D01*
G01*
X139429012Y-117323600D01*
G75*
G02*
X139530612Y-117222000I101600J0D01*
G01*
X139830612Y-117222000D01*
G75*
G02*
X139932212Y-117323600I0J-101600D01*
G01*
X139932212Y-118923600D01*
G75*
G02*
X139830612Y-119025200I-101600J0D01*
G01*
G37*
G36*
G01*
X139330612Y-119025200D02*
X139030612Y-119025200D01*
G75*
G02*
X138929012Y-118923600I0J101600D01*
G01*
X138929012Y-117323600D01*
G75*
G02*
X139030612Y-117222000I101600J0D01*
G01*
X139330612Y-117222000D01*
G75*
G02*
X139432212Y-117323600I0J-101600D01*
G01*
X139432212Y-118923600D01*
G75*
G02*
X139330612Y-119025200I-101600J0D01*
G01*
G37*
G36*
G01*
X138830612Y-119025200D02*
X138530612Y-119025200D01*
G75*
G02*
X138429012Y-118923600I0J101600D01*
G01*
X138429012Y-117323600D01*
G75*
G02*
X138530612Y-117222000I101600J0D01*
G01*
X138830612Y-117222000D01*
G75*
G02*
X138932212Y-117323600I0J-101600D01*
G01*
X138932212Y-118923600D01*
G75*
G02*
X138830612Y-119025200I-101600J0D01*
G01*
G37*
G36*
G01*
X138355612Y-119025200D02*
X138005612Y-119025200D01*
G75*
G02*
X137904012Y-118923600I0J101600D01*
G01*
X137904012Y-117323600D01*
G75*
G02*
X138005612Y-117222000I101600J0D01*
G01*
X138355612Y-117222000D01*
G75*
G02*
X138457212Y-117323600I0J-101600D01*
G01*
X138457212Y-118923600D01*
G75*
G02*
X138355612Y-119025200I-101600J0D01*
G01*
G37*
%TD*%
D12*
%TO.C,SW1*%
X156730612Y-104693600D03*
X156730612Y-98193600D03*
X161230612Y-104693600D03*
X161230612Y-98193600D03*
%TD*%
%TO.C,SW2*%
X156730612Y-114593600D03*
X156730612Y-108093600D03*
X161230612Y-114593600D03*
X161230612Y-108093600D03*
%TD*%
M02*
