%TF.GenerationSoftware,KiCad,Pcbnew,(5.1.10)-1*%
%TF.CreationDate,2022-10-31T01:55:02+09:00*%
%TF.ProjectId,IM920sL_module,494d3932-3073-44c5-9f6d-6f64756c652e,rev?*%
%TF.SameCoordinates,Original*%
%TF.FileFunction,Legend,Top*%
%TF.FilePolarity,Positive*%
%FSLAX46Y46*%
G04 Gerber Fmt 4.6, Leading zero omitted, Abs format (unit mm)*
G04 Created by KiCad (PCBNEW (5.1.10)-1) date 2022-10-31 01:55:02*
%MOMM*%
%LPD*%
G01*
G04 APERTURE LIST*
%ADD10C,0.150000*%
%ADD11C,0.120000*%
%ADD12C,0.152400*%
%ADD13C,0.100000*%
%ADD14C,0.127000*%
%ADD15C,0.050000*%
%ADD16C,0.030000*%
%ADD17C,0.070000*%
%ADD18C,0.020320*%
G04 APERTURE END LIST*
D10*
X163358095Y-113950000D02*
X163262857Y-113902380D01*
X163120000Y-113902380D01*
X162977142Y-113950000D01*
X162881904Y-114045238D01*
X162834285Y-114140476D01*
X162786666Y-114330952D01*
X162786666Y-114473809D01*
X162834285Y-114664285D01*
X162881904Y-114759523D01*
X162977142Y-114854761D01*
X163120000Y-114902380D01*
X163215238Y-114902380D01*
X163358095Y-114854761D01*
X163405714Y-114807142D01*
X163405714Y-114473809D01*
X163215238Y-114473809D01*
X163834285Y-114902380D02*
X163834285Y-113902380D01*
X164405714Y-114902380D01*
X164405714Y-113902380D01*
X164881904Y-114902380D02*
X164881904Y-113902380D01*
X165120000Y-113902380D01*
X165262857Y-113950000D01*
X165358095Y-114045238D01*
X165405714Y-114140476D01*
X165453333Y-114330952D01*
X165453333Y-114473809D01*
X165405714Y-114664285D01*
X165358095Y-114759523D01*
X165262857Y-114854761D01*
X165120000Y-114902380D01*
X164881904Y-114902380D01*
X163477142Y-112382380D02*
X163143809Y-111906190D01*
X162905714Y-112382380D02*
X162905714Y-111382380D01*
X163286666Y-111382380D01*
X163381904Y-111430000D01*
X163429523Y-111477619D01*
X163477142Y-111572857D01*
X163477142Y-111715714D01*
X163429523Y-111810952D01*
X163381904Y-111858571D01*
X163286666Y-111906190D01*
X162905714Y-111906190D01*
X163905714Y-111858571D02*
X164239047Y-111858571D01*
X164381904Y-112382380D02*
X163905714Y-112382380D01*
X163905714Y-111382380D01*
X164381904Y-111382380D01*
X165334285Y-111430000D02*
X165239047Y-111382380D01*
X165096190Y-111382380D01*
X164953333Y-111430000D01*
X164858095Y-111525238D01*
X164810476Y-111620476D01*
X164762857Y-111810952D01*
X164762857Y-111953809D01*
X164810476Y-112144285D01*
X164858095Y-112239523D01*
X164953333Y-112334761D01*
X165096190Y-112382380D01*
X165191428Y-112382380D01*
X165334285Y-112334761D01*
X165381904Y-112287142D01*
X165381904Y-111953809D01*
X165191428Y-111953809D01*
X163594285Y-109872380D02*
X163594285Y-108872380D01*
X164165714Y-109872380D01*
X164165714Y-108872380D01*
X165213333Y-109777142D02*
X165165714Y-109824761D01*
X165022857Y-109872380D01*
X164927619Y-109872380D01*
X164784761Y-109824761D01*
X164689523Y-109729523D01*
X164641904Y-109634285D01*
X164594285Y-109443809D01*
X164594285Y-109300952D01*
X164641904Y-109110476D01*
X164689523Y-109015238D01*
X164784761Y-108920000D01*
X164927619Y-108872380D01*
X165022857Y-108872380D01*
X165165714Y-108920000D01*
X165213333Y-108967619D01*
X162905714Y-107252380D02*
X162905714Y-106252380D01*
X163286666Y-106252380D01*
X163381904Y-106300000D01*
X163429523Y-106347619D01*
X163477142Y-106442857D01*
X163477142Y-106585714D01*
X163429523Y-106680952D01*
X163381904Y-106728571D01*
X163286666Y-106776190D01*
X162905714Y-106776190D01*
X164429523Y-107252380D02*
X163858095Y-107252380D01*
X164143809Y-107252380D02*
X164143809Y-106252380D01*
X164048571Y-106395238D01*
X163953333Y-106490476D01*
X163858095Y-106538095D01*
X165048571Y-106252380D02*
X165143809Y-106252380D01*
X165239047Y-106300000D01*
X165286666Y-106347619D01*
X165334285Y-106442857D01*
X165381904Y-106633333D01*
X165381904Y-106871428D01*
X165334285Y-107061904D01*
X165286666Y-107157142D01*
X165239047Y-107204761D01*
X165143809Y-107252380D01*
X165048571Y-107252380D01*
X164953333Y-107204761D01*
X164905714Y-107157142D01*
X164858095Y-107061904D01*
X164810476Y-106871428D01*
X164810476Y-106633333D01*
X164858095Y-106442857D01*
X164905714Y-106347619D01*
X164953333Y-106300000D01*
X165048571Y-106252380D01*
X163641904Y-104852380D02*
X163641904Y-103852380D01*
X164022857Y-103852380D01*
X164118095Y-103900000D01*
X164165714Y-103947619D01*
X164213333Y-104042857D01*
X164213333Y-104185714D01*
X164165714Y-104280952D01*
X164118095Y-104328571D01*
X164022857Y-104376190D01*
X163641904Y-104376190D01*
X164784761Y-104280952D02*
X164689523Y-104233333D01*
X164641904Y-104185714D01*
X164594285Y-104090476D01*
X164594285Y-104042857D01*
X164641904Y-103947619D01*
X164689523Y-103900000D01*
X164784761Y-103852380D01*
X164975238Y-103852380D01*
X165070476Y-103900000D01*
X165118095Y-103947619D01*
X165165714Y-104042857D01*
X165165714Y-104090476D01*
X165118095Y-104185714D01*
X165070476Y-104233333D01*
X164975238Y-104280952D01*
X164784761Y-104280952D01*
X164689523Y-104328571D01*
X164641904Y-104376190D01*
X164594285Y-104471428D01*
X164594285Y-104661904D01*
X164641904Y-104757142D01*
X164689523Y-104804761D01*
X164784761Y-104852380D01*
X164975238Y-104852380D01*
X165070476Y-104804761D01*
X165118095Y-104757142D01*
X165165714Y-104661904D01*
X165165714Y-104471428D01*
X165118095Y-104376190D01*
X165070476Y-104328571D01*
X164975238Y-104280952D01*
X163641904Y-102292380D02*
X163641904Y-101292380D01*
X164022857Y-101292380D01*
X164118095Y-101340000D01*
X164165714Y-101387619D01*
X164213333Y-101482857D01*
X164213333Y-101625714D01*
X164165714Y-101720952D01*
X164118095Y-101768571D01*
X164022857Y-101816190D01*
X163641904Y-101816190D01*
X165070476Y-101292380D02*
X164880000Y-101292380D01*
X164784761Y-101340000D01*
X164737142Y-101387619D01*
X164641904Y-101530476D01*
X164594285Y-101720952D01*
X164594285Y-102101904D01*
X164641904Y-102197142D01*
X164689523Y-102244761D01*
X164784761Y-102292380D01*
X164975238Y-102292380D01*
X165070476Y-102244761D01*
X165118095Y-102197142D01*
X165165714Y-102101904D01*
X165165714Y-101863809D01*
X165118095Y-101768571D01*
X165070476Y-101720952D01*
X164975238Y-101673333D01*
X164784761Y-101673333D01*
X164689523Y-101720952D01*
X164641904Y-101768571D01*
X164594285Y-101863809D01*
X163641904Y-99832380D02*
X163641904Y-98832380D01*
X164022857Y-98832380D01*
X164118095Y-98880000D01*
X164165714Y-98927619D01*
X164213333Y-99022857D01*
X164213333Y-99165714D01*
X164165714Y-99260952D01*
X164118095Y-99308571D01*
X164022857Y-99356190D01*
X163641904Y-99356190D01*
X165070476Y-99165714D02*
X165070476Y-99832380D01*
X164832380Y-98784761D02*
X164594285Y-99499047D01*
X165213333Y-99499047D01*
X163641904Y-97182380D02*
X163641904Y-96182380D01*
X164022857Y-96182380D01*
X164118095Y-96230000D01*
X164165714Y-96277619D01*
X164213333Y-96372857D01*
X164213333Y-96515714D01*
X164165714Y-96610952D01*
X164118095Y-96658571D01*
X164022857Y-96706190D01*
X163641904Y-96706190D01*
X164594285Y-96277619D02*
X164641904Y-96230000D01*
X164737142Y-96182380D01*
X164975238Y-96182380D01*
X165070476Y-96230000D01*
X165118095Y-96277619D01*
X165165714Y-96372857D01*
X165165714Y-96468095D01*
X165118095Y-96610952D01*
X164546666Y-97182380D01*
X165165714Y-97182380D01*
X131892380Y-114922380D02*
X131559047Y-114446190D01*
X131320952Y-114922380D02*
X131320952Y-113922380D01*
X131701904Y-113922380D01*
X131797142Y-113970000D01*
X131844761Y-114017619D01*
X131892380Y-114112857D01*
X131892380Y-114255714D01*
X131844761Y-114350952D01*
X131797142Y-114398571D01*
X131701904Y-114446190D01*
X131320952Y-114446190D01*
X132273333Y-114874761D02*
X132416190Y-114922380D01*
X132654285Y-114922380D01*
X132749523Y-114874761D01*
X132797142Y-114827142D01*
X132844761Y-114731904D01*
X132844761Y-114636666D01*
X132797142Y-114541428D01*
X132749523Y-114493809D01*
X132654285Y-114446190D01*
X132463809Y-114398571D01*
X132368571Y-114350952D01*
X132320952Y-114303333D01*
X132273333Y-114208095D01*
X132273333Y-114112857D01*
X132320952Y-114017619D01*
X132368571Y-113970000D01*
X132463809Y-113922380D01*
X132701904Y-113922380D01*
X132844761Y-113970000D01*
X133130476Y-113922380D02*
X133701904Y-113922380D01*
X133416190Y-114922380D02*
X133416190Y-113922380D01*
X131106666Y-111452380D02*
X131440000Y-112452380D01*
X131773333Y-111452380D01*
X132678095Y-112357142D02*
X132630476Y-112404761D01*
X132487619Y-112452380D01*
X132392380Y-112452380D01*
X132249523Y-112404761D01*
X132154285Y-112309523D01*
X132106666Y-112214285D01*
X132059047Y-112023809D01*
X132059047Y-111880952D01*
X132106666Y-111690476D01*
X132154285Y-111595238D01*
X132249523Y-111500000D01*
X132392380Y-111452380D01*
X132487619Y-111452380D01*
X132630476Y-111500000D01*
X132678095Y-111547619D01*
X133678095Y-112357142D02*
X133630476Y-112404761D01*
X133487619Y-112452380D01*
X133392380Y-112452380D01*
X133249523Y-112404761D01*
X133154285Y-112309523D01*
X133106666Y-112214285D01*
X133059047Y-112023809D01*
X133059047Y-111880952D01*
X133106666Y-111690476D01*
X133154285Y-111595238D01*
X133249523Y-111500000D01*
X133392380Y-111452380D01*
X133487619Y-111452380D01*
X133630476Y-111500000D01*
X133678095Y-111547619D01*
X131113809Y-109784761D02*
X131256666Y-109832380D01*
X131494761Y-109832380D01*
X131590000Y-109784761D01*
X131637619Y-109737142D01*
X131685238Y-109641904D01*
X131685238Y-109546666D01*
X131637619Y-109451428D01*
X131590000Y-109403809D01*
X131494761Y-109356190D01*
X131304285Y-109308571D01*
X131209047Y-109260952D01*
X131161428Y-109213333D01*
X131113809Y-109118095D01*
X131113809Y-109022857D01*
X131161428Y-108927619D01*
X131209047Y-108880000D01*
X131304285Y-108832380D01*
X131542380Y-108832380D01*
X131685238Y-108880000D01*
X131970952Y-108832380D02*
X132542380Y-108832380D01*
X132256666Y-109832380D02*
X132256666Y-108832380D01*
X132828095Y-109546666D02*
X133304285Y-109546666D01*
X132732857Y-109832380D02*
X133066190Y-108832380D01*
X133399523Y-109832380D01*
X133590000Y-108832380D02*
X134161428Y-108832380D01*
X133875714Y-109832380D02*
X133875714Y-108832380D01*
X131391904Y-107302380D02*
X131391904Y-106302380D01*
X131772857Y-106302380D01*
X131868095Y-106350000D01*
X131915714Y-106397619D01*
X131963333Y-106492857D01*
X131963333Y-106635714D01*
X131915714Y-106730952D01*
X131868095Y-106778571D01*
X131772857Y-106826190D01*
X131391904Y-106826190D01*
X132439523Y-107302380D02*
X132630000Y-107302380D01*
X132725238Y-107254761D01*
X132772857Y-107207142D01*
X132868095Y-107064285D01*
X132915714Y-106873809D01*
X132915714Y-106492857D01*
X132868095Y-106397619D01*
X132820476Y-106350000D01*
X132725238Y-106302380D01*
X132534761Y-106302380D01*
X132439523Y-106350000D01*
X132391904Y-106397619D01*
X132344285Y-106492857D01*
X132344285Y-106730952D01*
X132391904Y-106826190D01*
X132439523Y-106873809D01*
X132534761Y-106921428D01*
X132725238Y-106921428D01*
X132820476Y-106873809D01*
X132868095Y-106826190D01*
X132915714Y-106730952D01*
X131391904Y-104792380D02*
X131391904Y-103792380D01*
X131772857Y-103792380D01*
X131868095Y-103840000D01*
X131915714Y-103887619D01*
X131963333Y-103982857D01*
X131963333Y-104125714D01*
X131915714Y-104220952D01*
X131868095Y-104268571D01*
X131772857Y-104316190D01*
X131391904Y-104316190D01*
X132296666Y-103792380D02*
X132963333Y-103792380D01*
X132534761Y-104792380D01*
X131391904Y-102302380D02*
X131391904Y-101302380D01*
X131772857Y-101302380D01*
X131868095Y-101350000D01*
X131915714Y-101397619D01*
X131963333Y-101492857D01*
X131963333Y-101635714D01*
X131915714Y-101730952D01*
X131868095Y-101778571D01*
X131772857Y-101826190D01*
X131391904Y-101826190D01*
X132868095Y-101302380D02*
X132391904Y-101302380D01*
X132344285Y-101778571D01*
X132391904Y-101730952D01*
X132487142Y-101683333D01*
X132725238Y-101683333D01*
X132820476Y-101730952D01*
X132868095Y-101778571D01*
X132915714Y-101873809D01*
X132915714Y-102111904D01*
X132868095Y-102207142D01*
X132820476Y-102254761D01*
X132725238Y-102302380D01*
X132487142Y-102302380D01*
X132391904Y-102254761D01*
X132344285Y-102207142D01*
X131391904Y-99722380D02*
X131391904Y-98722380D01*
X131772857Y-98722380D01*
X131868095Y-98770000D01*
X131915714Y-98817619D01*
X131963333Y-98912857D01*
X131963333Y-99055714D01*
X131915714Y-99150952D01*
X131868095Y-99198571D01*
X131772857Y-99246190D01*
X131391904Y-99246190D01*
X132296666Y-98722380D02*
X132915714Y-98722380D01*
X132582380Y-99103333D01*
X132725238Y-99103333D01*
X132820476Y-99150952D01*
X132868095Y-99198571D01*
X132915714Y-99293809D01*
X132915714Y-99531904D01*
X132868095Y-99627142D01*
X132820476Y-99674761D01*
X132725238Y-99722380D01*
X132439523Y-99722380D01*
X132344285Y-99674761D01*
X132296666Y-99627142D01*
X131391904Y-97122380D02*
X131391904Y-96122380D01*
X131772857Y-96122380D01*
X131868095Y-96170000D01*
X131915714Y-96217619D01*
X131963333Y-96312857D01*
X131963333Y-96455714D01*
X131915714Y-96550952D01*
X131868095Y-96598571D01*
X131772857Y-96646190D01*
X131391904Y-96646190D01*
X132915714Y-97122380D02*
X132344285Y-97122380D01*
X132630000Y-97122380D02*
X132630000Y-96122380D01*
X132534761Y-96265238D01*
X132439523Y-96360476D01*
X132344285Y-96408095D01*
X156181428Y-95993333D02*
X156562380Y-95993333D01*
X156105238Y-96221904D02*
X156371904Y-95421904D01*
X156638571Y-96221904D01*
X156905238Y-96221904D02*
X156905238Y-95421904D01*
X157095714Y-95421904D01*
X157210000Y-95460000D01*
X157286190Y-95536190D01*
X157324285Y-95612380D01*
X157362380Y-95764761D01*
X157362380Y-95879047D01*
X157324285Y-96031428D01*
X157286190Y-96107619D01*
X157210000Y-96183809D01*
X157095714Y-96221904D01*
X156905238Y-96221904D01*
X158314761Y-96221904D02*
X158314761Y-95421904D01*
X158695714Y-96221904D02*
X158695714Y-95421904D01*
X159152857Y-96221904D01*
X159152857Y-95421904D01*
X159533809Y-96221904D02*
X159533809Y-95421904D01*
X159838571Y-95421904D01*
X159914761Y-95460000D01*
X159952857Y-95498095D01*
X159990952Y-95574285D01*
X159990952Y-95688571D01*
X159952857Y-95764761D01*
X159914761Y-95802857D01*
X159838571Y-95840952D01*
X159533809Y-95840952D01*
X160333809Y-95421904D02*
X160333809Y-96069523D01*
X160371904Y-96145714D01*
X160410000Y-96183809D01*
X160486190Y-96221904D01*
X160638571Y-96221904D01*
X160714761Y-96183809D01*
X160752857Y-96145714D01*
X160790952Y-96069523D01*
X160790952Y-95421904D01*
X161057619Y-95421904D02*
X161514761Y-95421904D01*
X161286190Y-96221904D02*
X161286190Y-95421904D01*
X157748095Y-116241904D02*
X157481428Y-115860952D01*
X157290952Y-116241904D02*
X157290952Y-115441904D01*
X157595714Y-115441904D01*
X157671904Y-115480000D01*
X157710000Y-115518095D01*
X157748095Y-115594285D01*
X157748095Y-115708571D01*
X157710000Y-115784761D01*
X157671904Y-115822857D01*
X157595714Y-115860952D01*
X157290952Y-115860952D01*
X158090952Y-115822857D02*
X158357619Y-115822857D01*
X158471904Y-116241904D02*
X158090952Y-116241904D01*
X158090952Y-115441904D01*
X158471904Y-115441904D01*
X158776666Y-116203809D02*
X158890952Y-116241904D01*
X159081428Y-116241904D01*
X159157619Y-116203809D01*
X159195714Y-116165714D01*
X159233809Y-116089523D01*
X159233809Y-116013333D01*
X159195714Y-115937142D01*
X159157619Y-115899047D01*
X159081428Y-115860952D01*
X158929047Y-115822857D01*
X158852857Y-115784761D01*
X158814761Y-115746666D01*
X158776666Y-115670476D01*
X158776666Y-115594285D01*
X158814761Y-115518095D01*
X158852857Y-115480000D01*
X158929047Y-115441904D01*
X159119523Y-115441904D01*
X159233809Y-115480000D01*
X159576666Y-115822857D02*
X159843333Y-115822857D01*
X159957619Y-116241904D02*
X159576666Y-116241904D01*
X159576666Y-115441904D01*
X159957619Y-115441904D01*
X160186190Y-115441904D02*
X160643333Y-115441904D01*
X160414761Y-116241904D02*
X160414761Y-115441904D01*
X158475714Y-105971904D02*
X158209047Y-105590952D01*
X158018571Y-105971904D02*
X158018571Y-105171904D01*
X158323333Y-105171904D01*
X158399523Y-105210000D01*
X158437619Y-105248095D01*
X158475714Y-105324285D01*
X158475714Y-105438571D01*
X158437619Y-105514761D01*
X158399523Y-105552857D01*
X158323333Y-105590952D01*
X158018571Y-105590952D01*
X158818571Y-105552857D02*
X159085238Y-105552857D01*
X159199523Y-105971904D02*
X158818571Y-105971904D01*
X158818571Y-105171904D01*
X159199523Y-105171904D01*
X159961428Y-105210000D02*
X159885238Y-105171904D01*
X159770952Y-105171904D01*
X159656666Y-105210000D01*
X159580476Y-105286190D01*
X159542380Y-105362380D01*
X159504285Y-105514761D01*
X159504285Y-105629047D01*
X159542380Y-105781428D01*
X159580476Y-105857619D01*
X159656666Y-105933809D01*
X159770952Y-105971904D01*
X159847142Y-105971904D01*
X159961428Y-105933809D01*
X159999523Y-105895714D01*
X159999523Y-105629047D01*
X159847142Y-105629047D01*
D11*
X160870000Y-118500000D02*
X160870000Y-116980000D01*
X157600000Y-118500000D02*
X160870000Y-118500000D01*
X157600000Y-116980000D02*
X157600000Y-118500000D01*
X160840000Y-116980000D02*
X157600000Y-116980000D01*
D12*
X134430612Y-90373600D02*
X134430612Y-119873600D01*
X134430612Y-119873600D02*
X154430612Y-119873600D01*
X154430612Y-119873600D02*
X154430612Y-90373600D01*
X154430612Y-90373600D02*
X152030612Y-90373600D01*
X152030612Y-90373600D02*
X152030612Y-91473600D01*
X149830612Y-91473600D02*
X149830612Y-90373600D01*
X149830612Y-90373600D02*
X134430612Y-90373600D01*
X149830612Y-91473600D02*
G75*
G03*
X152030612Y-91473600I1100000J0D01*
G01*
X152530612Y-116873600D02*
G75*
G03*
X152530612Y-116873600I-1100000J0D01*
G01*
%TO.C,JP1*%
X128030612Y-114998600D02*
X128030612Y-113728600D01*
X128665612Y-113093600D02*
X128030612Y-113728600D01*
X130570612Y-113728600D02*
X129935612Y-113093600D01*
X128665612Y-115633600D02*
X128030612Y-114998600D01*
X129935612Y-115633600D02*
X128665612Y-115633600D01*
X130570612Y-114998600D02*
X129935612Y-115633600D01*
X130570612Y-113728600D02*
X130570612Y-114998600D01*
X128030612Y-97218600D02*
X128030612Y-95948600D01*
X128665612Y-95313600D02*
X128030612Y-95948600D01*
X130570612Y-95948600D02*
X129935612Y-95313600D01*
X129935612Y-95313600D02*
X128665612Y-95313600D01*
X128030612Y-98488600D02*
X128665612Y-97853600D01*
X128030612Y-99758600D02*
X128030612Y-98488600D01*
X128665612Y-100393600D02*
X128030612Y-99758600D01*
X129935612Y-100393600D02*
X128665612Y-100393600D01*
X130570612Y-99758600D02*
X129935612Y-100393600D01*
X130570612Y-98488600D02*
X130570612Y-99758600D01*
X129935612Y-97853600D02*
X130570612Y-98488600D01*
X128665612Y-97853600D02*
X128030612Y-97218600D01*
X129935612Y-97853600D02*
X128665612Y-97853600D01*
X130570612Y-97218600D02*
X129935612Y-97853600D01*
X130570612Y-95948600D02*
X130570612Y-97218600D01*
X128030612Y-104838600D02*
X128030612Y-103568600D01*
X128665612Y-102933600D02*
X128030612Y-103568600D01*
X130570612Y-103568600D02*
X129935612Y-102933600D01*
X128030612Y-101028600D02*
X128665612Y-100393600D01*
X128030612Y-102298600D02*
X128030612Y-101028600D01*
X128665612Y-102933600D02*
X128030612Y-102298600D01*
X129935612Y-102933600D02*
X128665612Y-102933600D01*
X130570612Y-102298600D02*
X129935612Y-102933600D01*
X130570612Y-101028600D02*
X130570612Y-102298600D01*
X129935612Y-100393600D02*
X130570612Y-101028600D01*
X128030612Y-106108600D02*
X128665612Y-105473600D01*
X128030612Y-107378600D02*
X128030612Y-106108600D01*
X128665612Y-108013600D02*
X128030612Y-107378600D01*
X129935612Y-108013600D02*
X128665612Y-108013600D01*
X130570612Y-107378600D02*
X129935612Y-108013600D01*
X130570612Y-106108600D02*
X130570612Y-107378600D01*
X129935612Y-105473600D02*
X130570612Y-106108600D01*
X128665612Y-105473600D02*
X128030612Y-104838600D01*
X129935612Y-105473600D02*
X128665612Y-105473600D01*
X130570612Y-104838600D02*
X129935612Y-105473600D01*
X130570612Y-103568600D02*
X130570612Y-104838600D01*
X128030612Y-112458600D02*
X128030612Y-111188600D01*
X128665612Y-110553600D02*
X128030612Y-111188600D01*
X130570612Y-111188600D02*
X129935612Y-110553600D01*
X128030612Y-108648600D02*
X128665612Y-108013600D01*
X128030612Y-109918600D02*
X128030612Y-108648600D01*
X128665612Y-110553600D02*
X128030612Y-109918600D01*
X129935612Y-110553600D02*
X128665612Y-110553600D01*
X130570612Y-109918600D02*
X129935612Y-110553600D01*
X130570612Y-108648600D02*
X130570612Y-109918600D01*
X129935612Y-108013600D02*
X130570612Y-108648600D01*
X128665612Y-113093600D02*
X128030612Y-112458600D01*
X129935612Y-113093600D02*
X128665612Y-113093600D01*
X130570612Y-112458600D02*
X129935612Y-113093600D01*
X130570612Y-111188600D02*
X130570612Y-112458600D01*
%TO.C,JP2*%
X166130612Y-114998600D02*
X166130612Y-113728600D01*
X166765612Y-113093600D02*
X166130612Y-113728600D01*
X168670612Y-113728600D02*
X168035612Y-113093600D01*
X166765612Y-115633600D02*
X166130612Y-114998600D01*
X168035612Y-115633600D02*
X166765612Y-115633600D01*
X168670612Y-114998600D02*
X168035612Y-115633600D01*
X168670612Y-113728600D02*
X168670612Y-114998600D01*
X166130612Y-97218600D02*
X166130612Y-95948600D01*
X166765612Y-95313600D02*
X166130612Y-95948600D01*
X168670612Y-95948600D02*
X168035612Y-95313600D01*
X168035612Y-95313600D02*
X166765612Y-95313600D01*
X166130612Y-98488600D02*
X166765612Y-97853600D01*
X166130612Y-99758600D02*
X166130612Y-98488600D01*
X166765612Y-100393600D02*
X166130612Y-99758600D01*
X168035612Y-100393600D02*
X166765612Y-100393600D01*
X168670612Y-99758600D02*
X168035612Y-100393600D01*
X168670612Y-98488600D02*
X168670612Y-99758600D01*
X168035612Y-97853600D02*
X168670612Y-98488600D01*
X166765612Y-97853600D02*
X166130612Y-97218600D01*
X168035612Y-97853600D02*
X166765612Y-97853600D01*
X168670612Y-97218600D02*
X168035612Y-97853600D01*
X168670612Y-95948600D02*
X168670612Y-97218600D01*
X166130612Y-104838600D02*
X166130612Y-103568600D01*
X166765612Y-102933600D02*
X166130612Y-103568600D01*
X168670612Y-103568600D02*
X168035612Y-102933600D01*
X166130612Y-101028600D02*
X166765612Y-100393600D01*
X166130612Y-102298600D02*
X166130612Y-101028600D01*
X166765612Y-102933600D02*
X166130612Y-102298600D01*
X168035612Y-102933600D02*
X166765612Y-102933600D01*
X168670612Y-102298600D02*
X168035612Y-102933600D01*
X168670612Y-101028600D02*
X168670612Y-102298600D01*
X168035612Y-100393600D02*
X168670612Y-101028600D01*
X166130612Y-106108600D02*
X166765612Y-105473600D01*
X166130612Y-107378600D02*
X166130612Y-106108600D01*
X166765612Y-108013600D02*
X166130612Y-107378600D01*
X168035612Y-108013600D02*
X166765612Y-108013600D01*
X168670612Y-107378600D02*
X168035612Y-108013600D01*
X168670612Y-106108600D02*
X168670612Y-107378600D01*
X168035612Y-105473600D02*
X168670612Y-106108600D01*
X166765612Y-105473600D02*
X166130612Y-104838600D01*
X168035612Y-105473600D02*
X166765612Y-105473600D01*
X168670612Y-104838600D02*
X168035612Y-105473600D01*
X168670612Y-103568600D02*
X168670612Y-104838600D01*
X166130612Y-112458600D02*
X166130612Y-111188600D01*
X166765612Y-110553600D02*
X166130612Y-111188600D01*
X168670612Y-111188600D02*
X168035612Y-110553600D01*
X166130612Y-108648600D02*
X166765612Y-108013600D01*
X166130612Y-109918600D02*
X166130612Y-108648600D01*
X166765612Y-110553600D02*
X166130612Y-109918600D01*
X168035612Y-110553600D02*
X166765612Y-110553600D01*
X168670612Y-109918600D02*
X168035612Y-110553600D01*
X168670612Y-108648600D02*
X168670612Y-109918600D01*
X168035612Y-108013600D02*
X168670612Y-108648600D01*
X166765612Y-113093600D02*
X166130612Y-112458600D01*
X168035612Y-113093600D02*
X166765612Y-113093600D01*
X168670612Y-112458600D02*
X168035612Y-113093600D01*
X168670612Y-111188600D02*
X168670612Y-112458600D01*
%TO.C,STATUS*%
X158365612Y-118173600D02*
X158765612Y-118173600D01*
X158765612Y-118173600D02*
X159565612Y-118173600D01*
X159565612Y-118173600D02*
X159965612Y-118173600D01*
X159965612Y-118173600D02*
X159965612Y-117373600D01*
X159965612Y-117373600D02*
X159565612Y-117373600D01*
X159565612Y-117373600D02*
X158765612Y-117373600D01*
X158765612Y-117373600D02*
X158365612Y-117373600D01*
X158365612Y-117373600D02*
X158365612Y-118173600D01*
X159565612Y-118173600D02*
X159565612Y-117373600D01*
X158765612Y-118173600D02*
X158765612Y-117373600D01*
D13*
G36*
X159038112Y-117900600D02*
G01*
X159038112Y-117646600D01*
X159292112Y-117773600D01*
X159038112Y-117900600D01*
G37*
D14*
%TO.C,R1*%
X150200612Y-116928600D02*
X149800612Y-116928600D01*
X149800612Y-116928600D02*
X148600612Y-116928600D01*
X148600612Y-116928600D02*
X148200612Y-116928600D01*
X148200612Y-116928600D02*
X148200612Y-118178600D01*
X148200612Y-118178600D02*
X148600612Y-118178600D01*
X148600612Y-118178600D02*
X149800612Y-118178600D01*
X149800612Y-118178600D02*
X150200612Y-118178600D01*
X150200612Y-118178600D02*
X150200612Y-116928600D01*
X149800612Y-118178600D02*
X149800612Y-116928600D01*
X148600612Y-118178600D02*
X148600612Y-116928600D01*
D12*
%TO.C,AD_MODE1*%
X159385612Y-94693600D02*
X158750612Y-94058600D01*
X160655612Y-94693600D02*
X159385612Y-94693600D01*
X161290612Y-94058600D02*
X160655612Y-94693600D01*
X161290612Y-92788600D02*
X161290612Y-94058600D01*
X160655612Y-92153600D02*
X161290612Y-92788600D01*
X159385612Y-92153600D02*
X160655612Y-92153600D01*
X158750612Y-92788600D02*
X159385612Y-92153600D01*
X158115612Y-94693600D02*
X156845612Y-94693600D01*
X156210612Y-94058600D02*
X156845612Y-94693600D01*
X156845612Y-92153600D02*
X156210612Y-92788600D01*
X156210612Y-92788600D02*
X156210612Y-94058600D01*
X158750612Y-94058600D02*
X158115612Y-94693600D01*
X158750612Y-92788600D02*
X158750612Y-94058600D01*
X158115612Y-92153600D02*
X158750612Y-92788600D01*
X156845612Y-92153600D02*
X158115612Y-92153600D01*
D15*
%TO.C,C1*%
X144340612Y-115868600D02*
X145240612Y-115868600D01*
X144340612Y-116478600D02*
X145240612Y-116478600D01*
X145240612Y-116978600D02*
X144340612Y-116978600D01*
X145240612Y-116478600D02*
X145240612Y-116978600D01*
X145240612Y-115868600D02*
X145240612Y-116478600D01*
X145240612Y-115368600D02*
X145240612Y-115868600D01*
X144340612Y-115368600D02*
X145240612Y-115368600D01*
X144340612Y-115868600D02*
X144340612Y-115368600D01*
X144340612Y-116478600D02*
X144340612Y-115868600D01*
X144340612Y-116978600D02*
X144340612Y-116478600D01*
D16*
%TO.C,CN1*%
X143180612Y-116873600D02*
X143180612Y-117723600D01*
X143580612Y-116873600D02*
X143180612Y-116873600D01*
X143580612Y-115873600D02*
X143580612Y-116873600D01*
X143180612Y-115873600D02*
X143580612Y-115873600D01*
X143180612Y-115023600D02*
X143180612Y-115873600D01*
X137680612Y-115873600D02*
X137680612Y-115023600D01*
X137280612Y-115873600D02*
X137680612Y-115873600D01*
X137280612Y-116873600D02*
X137280612Y-115873600D01*
X137680612Y-116873600D02*
X137280612Y-116873600D01*
X137680612Y-117723600D02*
X137680612Y-116873600D01*
X143180612Y-117723600D02*
X137680612Y-117723600D01*
X137680612Y-115023600D02*
X143180612Y-115023600D01*
D15*
X136980612Y-118073600D02*
X136980612Y-114673600D01*
X143880612Y-118073600D02*
X136980612Y-118073600D01*
X143880612Y-114673600D02*
X143880612Y-118073600D01*
X136980612Y-114673600D02*
X143880612Y-114673600D01*
D17*
%TO.C,SW1*%
X156380612Y-105443600D02*
X156380612Y-104543600D01*
X157080612Y-105443600D02*
X156380612Y-105443600D01*
X157080612Y-104543600D02*
X157080612Y-105443600D01*
X160880612Y-105443600D02*
X160880612Y-104543600D01*
X161580612Y-105443600D02*
X160880612Y-105443600D01*
X161580612Y-104543600D02*
X161580612Y-105443600D01*
X160880612Y-97443600D02*
X160880612Y-98343600D01*
X161580612Y-97443600D02*
X160880612Y-97443600D01*
X161580612Y-98343600D02*
X161580612Y-97443600D01*
X156380612Y-97443600D02*
X156380612Y-98343600D01*
X157080612Y-97443600D02*
X156380612Y-97443600D01*
X157080612Y-98343600D02*
X157080612Y-97443600D01*
D15*
X160730612Y-101443600D02*
G75*
G03*
X160730612Y-101443600I-1750000J0D01*
G01*
D17*
X162080612Y-104543600D02*
X162080612Y-98343600D01*
X161580612Y-104543600D02*
X162080612Y-104543600D01*
X160880612Y-104543600D02*
X161580612Y-104543600D01*
X157080612Y-104543600D02*
X160880612Y-104543600D01*
X156380612Y-104543600D02*
X157080612Y-104543600D01*
X155880612Y-104543600D02*
X156380612Y-104543600D01*
X155880612Y-98343600D02*
X155880612Y-104543600D01*
X156380612Y-98343600D02*
X155880612Y-98343600D01*
X157080612Y-98343600D02*
X156380612Y-98343600D01*
X160880612Y-98343600D02*
X157080612Y-98343600D01*
X161580612Y-98343600D02*
X160880612Y-98343600D01*
D14*
X160880612Y-98343600D02*
X161580612Y-98343600D01*
X161580612Y-98343600D02*
X160880612Y-98343600D01*
D17*
X162080612Y-98343600D02*
X161580612Y-98343600D01*
%TO.C,SW2*%
X156380612Y-115343600D02*
X156380612Y-114443600D01*
X157080612Y-115343600D02*
X156380612Y-115343600D01*
X157080612Y-114443600D02*
X157080612Y-115343600D01*
X160880612Y-115343600D02*
X160880612Y-114443600D01*
X161580612Y-115343600D02*
X160880612Y-115343600D01*
X161580612Y-114443600D02*
X161580612Y-115343600D01*
X160880612Y-107343600D02*
X160880612Y-108243600D01*
X161580612Y-107343600D02*
X160880612Y-107343600D01*
X161580612Y-108243600D02*
X161580612Y-107343600D01*
X156380612Y-107343600D02*
X156380612Y-108243600D01*
X157080612Y-107343600D02*
X156380612Y-107343600D01*
X157080612Y-108243600D02*
X157080612Y-107343600D01*
D15*
X160730612Y-111343600D02*
G75*
G03*
X160730612Y-111343600I-1750000J0D01*
G01*
D17*
X162080612Y-114443600D02*
X162080612Y-108243600D01*
X161580612Y-114443600D02*
X162080612Y-114443600D01*
X160880612Y-114443600D02*
X161580612Y-114443600D01*
X157080612Y-114443600D02*
X160880612Y-114443600D01*
X156380612Y-114443600D02*
X157080612Y-114443600D01*
X155880612Y-114443600D02*
X156380612Y-114443600D01*
X155880612Y-108243600D02*
X155880612Y-114443600D01*
X156380612Y-108243600D02*
X155880612Y-108243600D01*
X157080612Y-108243600D02*
X156380612Y-108243600D01*
X160880612Y-108243600D02*
X157080612Y-108243600D01*
X161580612Y-108243600D02*
X160880612Y-108243600D01*
D14*
X160880612Y-108243600D02*
X161580612Y-108243600D01*
X161580612Y-108243600D02*
X160880612Y-108243600D01*
D17*
X162080612Y-108243600D02*
X161580612Y-108243600D01*
%TO.C,STATUS*%
D13*
X157508333Y-119563333D02*
X157608333Y-119596666D01*
X157775000Y-119596666D01*
X157841666Y-119563333D01*
X157875000Y-119530000D01*
X157908333Y-119463333D01*
X157908333Y-119396666D01*
X157875000Y-119330000D01*
X157841666Y-119296666D01*
X157775000Y-119263333D01*
X157641666Y-119230000D01*
X157575000Y-119196666D01*
X157541666Y-119163333D01*
X157508333Y-119096666D01*
X157508333Y-119030000D01*
X157541666Y-118963333D01*
X157575000Y-118930000D01*
X157641666Y-118896666D01*
X157808333Y-118896666D01*
X157908333Y-118930000D01*
X158108333Y-118896666D02*
X158508333Y-118896666D01*
X158308333Y-119596666D02*
X158308333Y-118896666D01*
X158708333Y-119396666D02*
X159041666Y-119396666D01*
X158641666Y-119596666D02*
X158875000Y-118896666D01*
X159108333Y-119596666D01*
X159241666Y-118896666D02*
X159641666Y-118896666D01*
X159441666Y-119596666D02*
X159441666Y-118896666D01*
X159875000Y-118896666D02*
X159875000Y-119463333D01*
X159908333Y-119530000D01*
X159941666Y-119563333D01*
X160008333Y-119596666D01*
X160141666Y-119596666D01*
X160208333Y-119563333D01*
X160241666Y-119530000D01*
X160275000Y-119463333D01*
X160275000Y-118896666D01*
X160575000Y-119563333D02*
X160675000Y-119596666D01*
X160841666Y-119596666D01*
X160908333Y-119563333D01*
X160941666Y-119530000D01*
X160975000Y-119463333D01*
X160975000Y-119396666D01*
X160941666Y-119330000D01*
X160908333Y-119296666D01*
X160841666Y-119263333D01*
X160708333Y-119230000D01*
X160641666Y-119196666D01*
X160608333Y-119163333D01*
X160575000Y-119096666D01*
X160575000Y-119030000D01*
X160608333Y-118963333D01*
X160641666Y-118930000D01*
X160708333Y-118896666D01*
X160875000Y-118896666D01*
X160975000Y-118930000D01*
%TO.C,R1*%
X149171666Y-119286666D02*
X148938333Y-118953333D01*
X148771666Y-119286666D02*
X148771666Y-118586666D01*
X149038333Y-118586666D01*
X149105000Y-118620000D01*
X149138333Y-118653333D01*
X149171666Y-118720000D01*
X149171666Y-118820000D01*
X149138333Y-118886666D01*
X149105000Y-118920000D01*
X149038333Y-118953333D01*
X148771666Y-118953333D01*
X149838333Y-119286666D02*
X149438333Y-119286666D01*
X149638333Y-119286666D02*
X149638333Y-118586666D01*
X149571666Y-118686666D01*
X149505000Y-118753333D01*
X149438333Y-118786666D01*
D18*
X149077055Y-117698509D02*
X148939169Y-117698509D01*
X149008112Y-117698509D02*
X149008112Y-117457209D01*
X148985131Y-117491680D01*
X148962150Y-117514661D01*
X148939169Y-117526152D01*
X149226431Y-117457209D02*
X149249412Y-117457209D01*
X149272393Y-117468700D01*
X149283884Y-117480190D01*
X149295374Y-117503171D01*
X149306865Y-117549133D01*
X149306865Y-117606585D01*
X149295374Y-117652547D01*
X149283884Y-117675528D01*
X149272393Y-117687019D01*
X149249412Y-117698509D01*
X149226431Y-117698509D01*
X149203450Y-117687019D01*
X149191960Y-117675528D01*
X149180469Y-117652547D01*
X149168979Y-117606585D01*
X149168979Y-117549133D01*
X149180469Y-117503171D01*
X149191960Y-117480190D01*
X149203450Y-117468700D01*
X149226431Y-117457209D01*
X149536674Y-117698509D02*
X149398788Y-117698509D01*
X149467731Y-117698509D02*
X149467731Y-117457209D01*
X149444750Y-117491680D01*
X149421769Y-117514661D01*
X149398788Y-117526152D01*
%TO.C,C1*%
D13*
X146160000Y-116298333D02*
X146193333Y-116331666D01*
X146226666Y-116431666D01*
X146226666Y-116498333D01*
X146193333Y-116598333D01*
X146126666Y-116665000D01*
X146060000Y-116698333D01*
X145926666Y-116731666D01*
X145826666Y-116731666D01*
X145693333Y-116698333D01*
X145626666Y-116665000D01*
X145560000Y-116598333D01*
X145526666Y-116498333D01*
X145526666Y-116431666D01*
X145560000Y-116331666D01*
X145593333Y-116298333D01*
X146226666Y-115631666D02*
X146226666Y-116031666D01*
X146226666Y-115831666D02*
X145526666Y-115831666D01*
X145626666Y-115898333D01*
X145693333Y-115965000D01*
X145726666Y-116031666D01*
%TD*%
M02*
